<svg width="181" height="54" viewBox="0 0 181 54" fill="none" xmlns="http://www.w3.org/2000/svg">
<rect width="181" height="54" rx="8" fill="black"/>
<path d="M38.8527 25.5202C38.8685 24.2876 39.1959 23.079 39.8044 22.0069C40.4129 20.9349 41.2827 20.0341 42.3328 19.3885C41.6657 18.4357 40.7856 17.6516 39.7624 17.0985C38.7393 16.5453 37.6012 16.2384 36.4387 16.202C33.9588 15.9417 31.5546 17.686 30.2909 17.686C29.0027 17.686 27.0571 16.2279 24.9619 16.271C23.6067 16.3148 22.2859 16.7088 21.1283 17.4148C19.9706 18.1208 19.0156 19.1147 18.3563 20.2995C15.5002 25.2444 17.6306 32.5118 20.3665 36.5089C21.7353 38.4662 23.3351 40.6525 25.4284 40.575C27.4768 40.4901 28.2419 39.2688 30.7145 39.2688C33.1641 39.2688 33.8819 40.575 36.0177 40.5257C38.2157 40.49 39.6006 38.5597 40.9214 36.5839C41.9049 35.1893 42.6617 33.6479 43.1638 32.0169C41.8868 31.4768 40.797 30.5728 40.0304 29.4175C39.2637 28.2622 38.8541 26.9068 38.8527 25.5202V25.5202Z" fill="white"/>
<path d="M34.8184 13.5733C36.0169 12.1346 36.6073 10.2854 36.4644 8.4184C34.6334 8.61071 32.9421 9.4858 31.7274 10.8693C31.1335 11.5452 30.6787 12.3315 30.3889 13.1833C30.099 14.035 29.98 14.9356 30.0384 15.8334C30.9542 15.8428 31.8602 15.6443 32.6882 15.2528C33.5162 14.8614 34.2446 14.2871 34.8184 13.5733Z" fill="white"/>
<path d="M64.746 35.6199H57.7557L56.077 40.5767H53.1162L59.7373 22.2379H62.8135L69.4345 40.5767H66.4232L64.746 35.6199ZM58.4797 33.3326H64.0206L61.2891 25.2881H61.2127L58.4797 33.3326Z" fill="white"/>
<path d="M83.7337 33.8922C83.7337 38.0471 81.5098 40.7166 78.1539 40.7166C77.3038 40.7611 76.4583 40.5652 75.7143 40.1515C74.9703 39.7378 74.3578 39.123 73.947 38.3774H73.8835V44.9999H71.139V27.2062H73.7956V29.4301H73.8461C74.2757 28.688 74.8986 28.0763 75.6482 27.6601C76.3979 27.2439 77.2464 27.0387 78.1034 27.0663C81.4968 27.0663 83.7337 29.7488 83.7337 33.8922ZM80.9128 33.8922C80.9128 31.1852 79.5138 29.4055 77.3794 29.4055C75.2825 29.4055 73.872 31.2227 73.872 33.8922C73.872 36.5862 75.2825 38.3904 77.3794 38.3904C79.5139 38.3904 80.9128 36.6237 80.9128 33.8922Z" fill="white"/>
<path d="M98.4499 33.8923C98.4499 38.0472 96.226 40.7167 92.8701 40.7167C92.0199 40.7612 91.1745 40.5654 90.4305 40.1516C89.6865 39.7379 89.074 39.1231 88.6632 38.3775H88.5997V45H85.8552V27.2063H88.5117V29.4302H88.5622C88.9919 28.6881 89.6147 28.0765 90.3644 27.6602C91.114 27.244 91.9625 27.0388 92.8195 27.0664C96.213 27.0664 98.4499 29.7489 98.4499 33.8923ZM95.629 33.8923C95.629 31.1853 94.23 29.4057 92.0956 29.4057C89.9987 29.4057 88.5882 31.2228 88.5882 33.8923C88.5882 36.5863 89.9987 38.3905 92.0956 38.3905C94.23 38.3905 95.629 36.6238 95.629 33.8923H95.629Z" fill="white"/>
<path d="M108.176 35.4672C108.379 37.2858 110.146 38.4799 112.56 38.4799C114.874 38.4799 116.538 37.2857 116.538 35.6459C116.538 34.2225 115.534 33.3702 113.157 32.7861L110.781 32.2135C107.413 31.4002 105.85 29.8253 105.85 27.2697C105.85 24.1056 108.607 21.9322 112.523 21.9322C116.398 21.9322 119.054 24.1056 119.144 27.2697H116.373C116.208 25.4396 114.695 24.3349 112.484 24.3349C110.273 24.3349 108.76 25.4526 108.76 27.0794C108.76 28.3759 109.726 29.1388 112.09 29.7228L114.111 30.2189C117.873 31.1088 119.437 32.6202 119.437 35.3027C119.437 38.7336 116.704 40.8825 112.357 40.8825C108.29 40.8825 105.544 38.7841 105.367 35.467L108.176 35.4672Z" fill="white"/>
<path d="M125.36 24.0421V27.2063H127.902V29.3796H125.36V36.7507C125.36 37.8958 125.869 38.4294 126.986 38.4294C127.288 38.4241 127.59 38.4029 127.889 38.3659V40.5263C127.387 40.6202 126.876 40.6627 126.365 40.6532C123.658 40.6532 122.602 39.6364 122.602 37.0434V29.3796H120.658V27.2063H122.602V24.0421H125.36Z" fill="white"/>
<path d="M129.375 33.8923C129.375 29.6855 131.852 27.0419 135.716 27.0419C139.593 27.0419 142.059 29.6854 142.059 33.8923C142.059 38.1107 139.606 40.7427 135.716 40.7427C131.828 40.7427 129.375 38.1107 129.375 33.8923ZM139.262 33.8923C139.262 31.0065 137.94 29.3033 135.716 29.3033C133.492 29.3033 132.171 31.0195 132.171 33.8923C132.171 36.7897 133.492 38.4799 135.716 38.4799C137.94 38.4799 139.262 36.7897 139.262 33.8923H139.262Z" fill="white"/>
<path d="M144.321 27.2063H146.939V29.4821H147.002C147.179 28.7713 147.596 28.1432 148.182 27.7033C148.767 27.2633 149.486 27.0385 150.218 27.0664C150.535 27.0653 150.85 27.0997 151.159 27.1688V29.7359C150.759 29.6139 150.343 29.5579 149.926 29.5701C149.527 29.5539 149.129 29.6242 148.76 29.7761C148.392 29.9281 148.06 30.1581 147.788 30.4503C147.516 30.7425 147.311 31.0901 147.186 31.4692C147.062 31.8482 147.021 32.2498 147.066 32.6462V40.5768H144.321L144.321 27.2063Z" fill="white"/>
<path d="M163.812 36.6498C163.443 39.077 161.08 40.7427 158.055 40.7427C154.166 40.7427 151.751 38.1367 151.751 33.9558C151.751 29.7619 154.179 27.0419 157.94 27.0419C161.639 27.0419 163.965 29.5831 163.965 33.637V34.5774H154.522V34.7432C154.478 35.2353 154.54 35.731 154.703 36.1974C154.865 36.6638 155.125 37.0903 155.466 37.4485C155.806 37.8067 156.218 38.0884 156.676 38.275C157.133 38.4615 157.625 38.5485 158.119 38.5304C158.767 38.5911 159.418 38.4409 159.974 38.1021C160.531 37.7633 160.963 37.2539 161.206 36.6498L163.812 36.6498ZM154.535 32.6592H161.219C161.244 32.2168 161.177 31.774 161.022 31.3588C160.868 30.9435 160.629 30.5646 160.321 30.246C160.013 29.9273 159.643 29.6758 159.233 29.5071C158.823 29.3384 158.383 29.2563 157.94 29.2658C157.493 29.2631 157.05 29.349 156.636 29.5184C156.223 29.6879 155.847 29.9376 155.53 30.2531C155.214 30.5686 154.963 30.9436 154.792 31.3566C154.621 31.7696 154.534 32.2123 154.535 32.6593V32.6592Z" fill="white"/>
<path d="M58.1357 8.43419C58.711 8.3929 59.2884 8.47983 59.8261 8.6887C60.3639 8.89756 60.8485 9.22317 61.2452 9.64203C61.6418 10.0609 61.9405 10.5625 62.1198 11.1108C62.2991 11.6591 62.3545 12.2404 62.2819 12.8127C62.2819 15.6278 60.7604 17.246 58.1357 17.246H54.9528V8.43419H58.1357ZM56.3214 15.9998H57.9828C58.3939 16.0244 58.8054 15.957 59.1872 15.8025C59.569 15.648 59.9116 15.4103 60.1899 15.1067C60.4683 14.8032 60.6755 14.4413 60.7964 14.0476C60.9172 13.6539 60.9488 13.2381 60.8888 12.8306C60.9445 12.4247 60.9097 12.0116 60.7869 11.6207C60.6642 11.2299 60.4565 10.871 60.1788 10.5698C59.901 10.2687 59.5601 10.0327 59.1805 9.87874C58.8008 9.7248 58.3918 9.65674 57.9828 9.67945H56.3214V15.9998Z" fill="white"/>
<path d="M63.8279 13.918C63.7861 13.481 63.8361 13.0401 63.9747 12.6235C64.1133 12.207 64.3374 11.824 64.6327 11.4991C64.928 11.1742 65.2879 10.9147 65.6893 10.737C66.0908 10.5594 66.525 10.4677 66.964 10.4677C67.403 10.4677 67.8371 10.5594 68.2386 10.737C68.6401 10.9147 69 11.1742 69.2953 11.4991C69.5905 11.824 69.8147 12.207 69.9532 12.6235C70.0918 13.0401 70.1418 13.481 70.1 13.918C70.1426 14.3555 70.0932 14.797 69.955 15.2142C69.8168 15.6315 69.5928 16.0152 69.2975 16.3407C69.0021 16.6662 68.6419 16.9263 68.24 17.1043C67.8382 17.2823 67.4035 17.3743 66.964 17.3743C66.5244 17.3743 66.0898 17.2823 65.6879 17.1043C65.286 16.9263 64.9259 16.6662 64.6305 16.3407C64.3352 16.0152 64.1112 15.6315 63.973 15.2142C63.8347 14.797 63.7853 14.3555 63.8279 13.918V13.918ZM68.7501 13.918C68.7501 12.4766 68.1026 11.6336 66.9661 11.6336C65.8254 11.6336 65.1836 12.4766 65.1836 13.918C65.1836 15.371 65.8254 16.2075 66.9661 16.2075C68.1026 16.2075 68.7501 15.3652 68.7501 13.918H68.7501Z" fill="white"/>
<path d="M78.4374 17.2459H77.0759L75.7015 12.3482H75.5977L74.2291 17.2459H72.8806L71.0476 10.5959H72.3788L73.57 15.6702H73.6681L75.0353 10.5959H76.2943L77.6615 15.6702H77.7653L78.9508 10.5959H80.2632L78.4374 17.2459Z" fill="white"/>
<path d="M81.8048 10.5958H83.0682V11.6522H83.1662C83.3326 11.2728 83.6132 10.9548 83.9689 10.7424C84.3246 10.53 84.7378 10.4339 85.1507 10.4675C85.4743 10.4432 85.7991 10.4919 86.1013 10.6102C86.4034 10.7285 86.6751 10.9133 86.8962 11.1508C87.1172 11.3883 87.282 11.6726 87.3783 11.9824C87.4746 12.2923 87.4999 12.6198 87.4524 12.9408V17.2457H86.14V13.2704C86.14 12.2017 85.6756 11.6703 84.7051 11.6703C84.4854 11.66 84.2661 11.6974 84.0622 11.7799C83.8583 11.8623 83.6747 11.9879 83.5238 12.148C83.373 12.308 83.2586 12.4988 83.1884 12.7072C83.1182 12.9156 83.0939 13.1368 83.1172 13.3555V17.2458H81.8048L81.8048 10.5958Z" fill="white"/>
<path d="M89.5436 8H90.856V17.2459H89.5436V8Z" fill="white"/>
<path d="M92.6802 13.918C92.6384 13.481 92.6885 13.04 92.8271 12.6234C92.9657 12.2069 93.1898 11.8239 93.4851 11.499C93.7804 11.1741 94.1404 10.9145 94.5419 10.7369C94.9434 10.5593 95.3776 10.4675 95.8166 10.4675C96.2556 10.4675 96.6898 10.5593 97.0913 10.7369C97.4928 10.9145 97.8528 11.1741 98.1481 11.499C98.4434 11.8239 98.6675 12.2069 98.8061 12.6234C98.9447 13.04 98.9948 13.481 98.953 13.918C98.9955 14.3555 98.9461 14.797 98.8078 15.2143C98.6696 15.6315 98.4456 16.0152 98.1502 16.3407C97.8548 16.6662 97.4946 16.9263 97.0927 17.1043C96.6908 17.2823 96.2561 17.3742 95.8166 17.3742C95.3771 17.3742 94.9424 17.2823 94.5405 17.1043C94.1386 16.9263 93.7784 16.6662 93.483 16.3407C93.1876 16.0152 92.9636 15.6315 92.8254 15.2143C92.6871 14.797 92.6377 14.3555 92.6802 13.918V13.918ZM97.6024 13.918C97.6024 12.4766 96.9548 11.6336 95.8184 11.6336C94.6776 11.6336 94.0359 12.4766 94.0359 13.918C94.0359 15.371 94.6777 16.2075 95.8184 16.2075C96.9548 16.2075 97.6024 15.3652 97.6024 13.918H97.6024Z" fill="white"/>
<path d="M100.335 15.3652C100.335 14.1682 101.226 13.4781 102.808 13.38L104.609 13.2762V12.7022C104.609 11.9998 104.145 11.6032 103.248 11.6032C102.515 11.6032 102.008 11.8722 101.862 12.3424H100.591C100.725 11.2002 101.8 10.4675 103.308 10.4675C104.976 10.4675 105.916 11.2975 105.916 12.7022V17.2458H104.652V16.3113H104.549C104.338 16.6465 104.042 16.9198 103.691 17.1032C103.34 17.2866 102.947 17.3737 102.551 17.3554C102.272 17.3844 101.99 17.3546 101.723 17.2679C101.456 17.1812 101.21 17.0396 101.001 16.8521C100.793 16.6646 100.625 16.4354 100.51 16.1793C100.396 15.9232 100.336 15.6459 100.335 15.3652V15.3652ZM104.609 14.797V14.241L102.985 14.3448C102.07 14.4061 101.654 14.7176 101.654 15.3039C101.654 15.9024 102.173 16.2507 102.887 16.2507C103.096 16.2718 103.308 16.2507 103.509 16.1886C103.709 16.1264 103.896 16.0245 104.056 15.8889C104.217 15.7532 104.349 15.5867 104.444 15.3991C104.539 15.2115 104.595 15.0067 104.609 14.797V14.797Z" fill="white"/>
<path d="M107.641 13.918C107.641 11.8168 108.721 10.4856 110.401 10.4856C110.817 10.4665 111.229 10.566 111.591 10.7726C111.952 10.9792 112.246 11.2843 112.441 11.6523H112.539V8H113.851V17.2459H112.593V16.1952H112.49C112.281 16.5607 111.975 16.862 111.607 17.0665C111.239 17.271 110.822 17.371 110.401 17.3554C108.71 17.3555 107.641 16.0243 107.641 13.918ZM108.997 13.918C108.997 15.3285 109.662 16.1772 110.773 16.1772C111.88 16.1772 112.563 15.3163 112.563 13.9238C112.563 12.5379 111.872 11.6646 110.773 11.6646C109.669 11.6646 108.997 12.5191 108.997 13.918H108.997Z" fill="white"/>
<path d="M119.281 13.918C119.239 13.481 119.289 13.0401 119.427 12.6235C119.566 12.207 119.79 11.824 120.085 11.4991C120.381 11.1742 120.741 10.9147 121.142 10.737C121.544 10.5594 121.978 10.4677 122.417 10.4677C122.856 10.4677 123.29 10.5594 123.691 10.737C124.093 10.9147 124.453 11.1742 124.748 11.4991C125.043 11.824 125.267 12.207 125.406 12.6235C125.545 13.0401 125.595 13.481 125.553 13.918C125.595 14.3555 125.546 14.797 125.408 15.2142C125.27 15.6315 125.046 16.0152 124.75 16.3407C124.455 16.6662 124.095 16.9263 123.693 17.1043C123.291 17.2823 122.856 17.3743 122.417 17.3743C121.977 17.3743 121.543 17.2823 121.141 17.1043C120.739 16.9263 120.379 16.6662 120.083 16.3407C119.788 16.0152 119.564 15.6315 119.426 15.2142C119.287 14.797 119.238 14.3555 119.281 13.918V13.918ZM124.203 13.918C124.203 12.4766 123.555 11.6336 122.419 11.6336C121.278 11.6336 120.636 12.4766 120.636 13.918C120.636 15.371 121.278 16.2075 122.419 16.2075C123.555 16.2075 124.203 15.3652 124.203 13.918Z" fill="white"/>
<path d="M127.314 10.5958H128.577V11.6522H128.675C128.842 11.2728 129.122 10.9548 129.478 10.7424C129.834 10.53 130.247 10.4339 130.66 10.4675C130.983 10.4432 131.308 10.4919 131.61 10.6102C131.912 10.7285 132.184 10.9133 132.405 11.1508C132.626 11.3883 132.791 11.6726 132.887 11.9824C132.983 12.2923 133.009 12.6198 132.961 12.9408V17.2457H131.649V13.2704C131.649 12.2017 131.185 11.6703 130.214 11.6703C129.994 11.66 129.775 11.6974 129.571 11.7799C129.367 11.8623 129.184 11.9879 129.033 12.148C128.882 12.308 128.768 12.4988 128.697 12.7072C128.627 12.9156 128.603 13.1368 128.626 13.3555V17.2458H127.314V10.5958Z" fill="white"/>
<path d="M140.377 8.94037V10.6263H141.818V11.7317H140.377V15.1511C140.377 15.8477 140.664 16.1527 141.317 16.1527C141.485 16.1522 141.652 16.1421 141.818 16.1225V17.2156C141.582 17.2578 141.343 17.2802 141.104 17.2827C139.644 17.2827 139.063 16.7693 139.063 15.4872V11.7317H138.007V10.6262H139.063V8.94037H140.377Z" fill="white"/>
<path d="M143.61 8H144.911V11.6646H145.015C145.189 11.2816 145.478 10.9618 145.841 10.7486C146.203 10.5354 146.623 10.4393 147.043 10.4734C147.365 10.4558 147.686 10.5096 147.985 10.6307C148.284 10.7519 148.552 10.9375 148.771 11.1743C148.99 11.4111 149.153 11.6932 149.251 12.0006C149.348 12.308 149.376 12.633 149.333 12.9525V17.2459H148.019V13.2762C148.019 12.2141 147.524 11.6761 146.597 11.6761C146.372 11.6576 146.145 11.6886 145.932 11.767C145.72 11.8453 145.527 11.9691 145.368 12.1297C145.208 12.2903 145.086 12.4838 145.009 12.6966C144.932 12.9095 144.903 13.1366 144.923 13.362V17.2458H143.61L143.61 8Z" fill="white"/>
<path d="M156.985 15.4503C156.807 16.0581 156.421 16.5838 155.894 16.9355C155.367 17.2872 154.733 17.4425 154.104 17.3742C153.666 17.3858 153.23 17.3018 152.828 17.1283C152.425 16.9547 152.066 16.6957 151.773 16.3691C151.481 16.0425 151.263 15.6562 151.135 15.2371C151.007 14.8179 150.972 14.376 151.032 13.9418C150.974 13.5063 151.009 13.0634 151.137 12.643C151.265 12.2226 151.481 11.8345 151.772 11.5051C152.063 11.1757 152.421 10.9125 152.822 10.7335C153.224 10.5545 153.659 10.4638 154.098 10.4676C155.948 10.4676 157.065 11.7317 157.065 13.8199V14.2779H152.369V14.3514C152.348 14.5954 152.379 14.8411 152.459 15.0726C152.539 15.304 152.666 15.5163 152.833 15.6956C153 15.875 153.202 16.0175 153.427 16.1141C153.652 16.2107 153.895 16.2592 154.14 16.2565C154.454 16.2942 154.772 16.2376 155.053 16.0941C155.335 15.9505 155.568 15.7264 155.722 15.4503L156.985 15.4503ZM152.369 13.3072H155.728C155.744 13.0841 155.714 12.8599 155.639 12.6491C155.563 12.4383 155.445 12.2457 155.291 12.0834C155.136 11.9212 154.95 11.793 154.743 11.7071C154.537 11.6212 154.314 11.5794 154.091 11.5846C153.864 11.5817 153.638 11.6243 153.428 11.7099C153.218 11.7955 153.027 11.9223 152.867 12.0828C152.706 12.2434 152.579 12.4344 152.494 12.6447C152.408 12.855 152.366 13.0803 152.369 13.3072H152.369Z" fill="white"/>
</svg>
