<svg width="14" height="15" viewBox="0 0 14 15" fill="none" xmlns="http://www.w3.org/2000/svg">
<path d="M10.8502 0.904785H2.79104C1.28163 0.904785 0.0595703 2.127 0.0595703 3.63659V11.6985C0.0595703 13.2064 1.28163 14.4286 2.79104 14.4286H10.8519C12.3596 14.4286 13.5834 13.2064 13.5834 11.6968V3.63659C13.5817 2.127 12.3596 0.904785 10.8502 0.904785Z" fill="url(#paint0_linear_872_4069)"/>
<path fill-rule="evenodd" clip-rule="evenodd" d="M6.80313 4.20246L7.08541 3.74222C7.25966 3.45457 7.64823 3.35759 7.95316 3.52196C8.25809 3.68633 8.36089 4.05288 8.18665 4.34054L5.46667 8.78189H7.4339C8.07164 8.78189 8.42885 9.48869 8.1518 9.97852H2.38426C2.03228 9.97852 1.75 9.71224 1.75 9.38021C1.75 9.04817 2.03228 8.78189 2.38426 8.78189H4.00126L6.0713 5.39745L5.42485 4.33889C5.2506 4.05124 5.35341 3.68798 5.65834 3.52032C5.96327 3.35594 6.34835 3.45292 6.52608 3.74058L6.80313 4.20246ZM4.35676 10.5949L3.7469 11.5927C3.57266 11.8803 3.18409 11.9773 2.87916 11.8129C2.57423 11.6486 2.47142 11.282 2.64567 10.9944L3.09871 10.2547C3.61099 10.1051 4.02744 10.2202 4.35676 10.5949ZM11.2588 8.78503H9.60869C9.48236 8.57865 9.36085 8.38014 9.24417 8.1895C8.59318 7.12593 8.09218 6.3074 7.73903 5.73591C7.3644 6.03014 6.98455 6.89803 7.516 7.76263C7.74644 8.13976 8.0287 8.60075 8.36247 9.14587C8.7808 9.82907 9.28004 10.6444 9.8596 11.5925C10.0373 11.8802 10.4224 11.9771 10.7274 11.8128C11.0323 11.6451 11.1351 11.2818 10.9608 10.9942L10.3423 9.98166H11.2588C11.6108 9.98166 11.8931 9.71538 11.8931 9.38334C11.8931 9.05131 11.6108 8.78503 11.2588 8.78503Z" fill="white"/>
<defs>
<linearGradient id="paint0_linear_872_4069" x1="0.0595703" y1="0.904785" x2="0.0595703" y2="14.4286" gradientUnits="userSpaceOnUse">
<stop stop-color="#18BFFB"/>
<stop offset="1" stop-color="#2072F3"/>
</linearGradient>
</defs>
</svg>
