<svg width="19" height="15" viewBox="0 0 19 15" fill="none" xmlns="http://www.w3.org/2000/svg">
<path fill-rule="evenodd" clip-rule="evenodd" d="M13.7635 5.53448C13.8551 5.53448 13.9375 5.59581 13.9729 5.6898C14.0082 5.78381 13.9888 5.89187 13.924 5.96378L9.39013 10.9943C9.34754 11.0411 9.28997 11.0677 9.2297 11.0677C9.21795 11.0677 9.2063 11.0667 9.19484 11.0647V14.1499H16.5504C16.5504 14.1499 18.3893 11.0885 18.3893 9.17127C18.3893 7.25404 16.5504 0.358201 16.5504 0.358201H11.2804V5.53448H13.7635ZM7.20162 0.358154H1.83889C1.83889 0.358154 0 7.254 0 9.17123C0 11.0885 1.83889 14.1498 1.83889 14.1498H9.19446V11.0647C9.14731 11.0564 9.10346 11.0318 9.06927 10.9938L4.54859 5.96328C4.48378 5.89139 4.46475 5.78332 4.49965 5.68933C4.535 5.59583 4.61749 5.5345 4.70903 5.5345H7.20162V0.358154Z" fill="#0087FF"/>
</svg>
