<svg width="34" height="30" viewBox="0 0 34 30" xmlns="http://www.w3.org/2000/svg"><g fill-rule="nonzero" fill="none"><path d="M23.75 19.054v2.517a.929.929 0 01-.929.929H10.93a.929.929 0 01-.929-.929v-2.517a.929.929 0 00-.929-.929H.145A.145.145 0 000 18.27v10.09C0 29.264.735 30 1.641 30H32.11c.906 0 1.641-.735 1.641-1.641V18.27a.145.145 0 00-.145-.145h-8.926a.929.929 0 00-.929.929z" fill="#1081E0"/><path d="M27.5 0H6.25L0 18.125v.144c0-.079.065-.144.145-.144h8.926c.513 0 .929.416.929.929v2.517c0 .513.416.929.929.929H22.82a.929.929 0 00.929-.929v-2.517c0-.513.416-.929.929-.929h8.926c.08 0 .145.065.145.144v-.146L27.5 0z" fill="#13649B"/><path d="M9.071 18.125c.513 0 .929.416.929.929v2.517c0 .513.416.929.929.929H22.82a.929.929 0 00.929-.929v-2.517c0-.513.416-.929.929-.929h4.071v-5H5v5h4.071z" fill="#F2ECBF"/><path fill="#D8D1AB" d="M6.875 8.125h20v5h-20z"/><path fill="#BAB395" d="M8.75 3.125H25v5H8.75z"/></g></svg>