<svg width="30" height="30" viewBox="0 0 30 30" xmlns="http://www.w3.org/2000/svg"><g fill-rule="nonzero" fill="none"><path d="M19.65 0C14.08 0 9.565 4.048 9.565 9.043c0 1.84.615 3.551 1.668 4.98-.138 1.65-.536 3.974-1.668 5.106 0 0 3.459-.485 5.8-1.9 1.302.549 2.753.857 4.287.857 5.57 0 10.086-4.049 10.086-9.043C29.737 4.048 25.22 0 19.65 0z" fill="#0391FD"/><path d="M13.414 28.758l-2.16-1.381c-.537-.293-1.161-1.306-1.161-1.917v-1.676s1.49-.985 1.949-2.98c.38-.246.634-.67.634-1.154v-1.254c-1.659.528-3.11.733-3.11.733 1.131-1.132 1.529-3.456 1.667-5.106a8.584 8.584 0 01-1.318-2.637c-.722-.323-1.671-.532-2.925-.532-5.588 0-5.172 4.138-5.172 4.138v1.617c-.28.252-.514.804-.514 1.207v1.835c0 .483.254.908.634 1.153.458 1.995 1.95 2.98 1.95 2.98v1.677c0 .611-.625 1.624-1.162 1.916l-2.16 1.381c-.564.36-.308 1.234.36 1.234h12.13c.666 0 .921-.874.358-1.234z" fill="#A1C8EC"/><circle fill="#FFF" cx="14.219" cy="9.302" r="1.552"/><circle fill="#FFF" cx="19.909" cy="9.302" r="1.552"/><circle fill="#FFF" cx="25.599" cy="9.302" r="1.552"/></g></svg>