<svg width="30" height="30" viewBox="0 0 30 30" xmlns="http://www.w3.org/2000/svg" xmlns:xlink="http://www.w3.org/1999/xlink"><defs><circle id="a" cx="15" cy="15" r="15"/></defs><g fill="none" fill-rule="evenodd"><mask id="b" fill="#fff"><use xlink:href="#a"/></mask><use fill="#FFE0DD" xlink:href="#a"/><path d="M18.972 4.68s.758 1.324 1.58 1.324c0 0-.166.84-.865 1.296.225.585.348 1.22.348 1.886v.664c.577.192.994.737.994 1.372v.766c0 .64-.415 1.184-.995 1.374v-.07c0 1.617-.729 3.063-1.875 4.027.066.806.241 2.206.67 2.722 2.706.25 5.457 2.348 6.313 4.901l.52 1.551c.174.52.171 1.355-.17 1.787l.003.021v.032c-.015.326-.555 2.038-10.297 2.083h-.39c-10.161 0-10.718-1.753-10.732-2.083v-.032a.15.15 0 01.003-.02c-.27-.469-.347-1.268-.173-1.788l.52-1.55c.877-2.615 3.742-4.753 6.51-4.918.367-.593.523-1.865.584-2.612a5.25 5.25 0 01-1.986-4.053 1.45 1.45 0 01-.995-1.372v-.766c0-.64.415-1.184.994-1.373l.001-.409c-.155-.995-.447-3.658.792-3.973.081-.02.155-.032.222-.035.259-.725 1.137-2.339 3.821-2.5 3.479-.208 4.603 1.748 4.603 1.748z" fill="#FF4130" mask="url(#b)"/></g></svg>