<svg width="181" height="54" viewBox="0 0 181 54" fill="none" xmlns="http://www.w3.org/2000/svg">
<rect width="181" height="54" rx="8" fill="black"/>
<path d="M63.5579 13.9913C63.5579 15.1083 63.2271 15.9979 62.5646 16.6615C61.812 17.4506 60.8312 17.8454 59.6255 17.8454C58.4708 17.8454 57.4891 17.4454 56.6818 16.6443C55.873 15.8438 55.4694 14.8511 55.4694 13.6667C55.4694 12.4818 55.873 11.4897 56.6818 10.6886C57.4891 9.88808 58.4708 9.48755 59.6255 9.48755C60.1984 9.48755 60.747 9.59955 61.2678 9.82302C61.7886 10.047 62.2063 10.3443 62.5188 10.7167L61.8156 11.4203C61.286 10.7875 60.5568 10.4714 59.6255 10.4714C58.7834 10.4714 58.0552 10.7673 57.4407 11.3594C56.826 11.9522 56.5188 12.7209 56.5188 13.6667C56.5188 14.6126 56.826 15.3813 57.4407 15.9741C58.0552 16.5662 58.7834 16.8621 59.6255 16.8621C60.5188 16.8621 61.2636 16.5646 61.8599 15.9689C62.247 15.5807 62.4708 15.0413 62.5307 14.3485H59.6255V13.3875H63.5022C63.5396 13.5965 63.5579 13.797 63.5579 13.9913" fill="white"/>
<path d="M63.5579 13.9912H63.4246C63.4235 15.0828 63.1047 15.9307 62.4703 16.5672L62.4689 16.5683L62.4683 16.5693C61.7397 17.3312 60.8031 17.7104 59.6255 17.712C58.5017 17.7104 57.561 17.3271 56.7755 16.55C55.9918 15.7713 55.6042 14.8208 55.6027 13.6667C55.6042 12.512 55.9918 11.562 56.7755 10.7839C57.561 10.0063 58.5017 9.6224 59.6255 9.6208C60.1813 9.6208 60.7105 9.7292 61.2151 9.94533C61.7203 10.1631 62.1194 10.4484 62.4167 10.8027L62.5189 10.7167L62.4246 10.6224L61.7214 11.3265L61.8157 11.4203L61.9183 11.3349C61.3641 10.6708 60.5861 10.336 59.6255 10.338C58.7522 10.3369 57.9839 10.6489 57.3485 11.2636C56.7069 11.8803 56.3845 12.6921 56.3855 13.6667C56.3845 14.6412 56.7069 15.4531 57.3485 16.0697C57.9839 16.6844 58.7522 16.9964 59.6255 16.9953C60.5485 16.9969 61.335 16.6839 61.9542 16.0631C62.3678 15.6484 62.6022 15.074 62.6637 14.3599L62.6761 14.2151H59.7589V13.5208H63.5022V13.3875L63.3709 13.4109C63.4074 13.6131 63.4246 13.8052 63.4246 13.9912H63.6913C63.6913 13.7885 63.6725 13.5803 63.6334 13.3636L63.6137 13.2541H59.4922V14.4817H62.5307V14.3484L62.3979 14.3369C62.3391 15.0079 62.1255 15.5131 61.7657 15.8745C61.1927 16.4453 60.4897 16.7271 59.6255 16.7287C58.8146 16.7276 58.1266 16.4484 57.5334 15.8781C56.9459 15.3099 56.6537 14.5844 56.6522 13.6667C56.6537 12.7489 56.9459 12.0235 57.5334 11.4552C58.1266 10.8849 58.8146 10.6057 59.6255 10.6047C60.5271 10.6068 61.2079 10.9047 61.7137 11.5063L61.8074 11.6177L62.6131 10.8109L62.6995 10.7245L62.6209 10.6312C62.2933 10.2407 61.8569 9.93066 61.3203 9.70053C60.7829 9.46973 60.2157 9.35413 59.6255 9.35413C58.4402 9.35306 57.4173 9.76973 56.5875 10.5943C55.7547 11.4172 55.335 12.4516 55.3361 13.6667C55.335 14.8812 55.7547 15.9161 56.5881 16.7396C57.4173 17.5636 58.4402 17.9797 59.6255 17.9787C60.8599 17.9797 61.8839 17.5697 62.661 16.7536L62.5646 16.6615L62.6589 16.7557C63.3495 16.0656 63.6922 15.1333 63.6913 13.9912H63.5579V13.9912ZM69.7037 10.6495H66.0605V13.186H69.3459V14.1473H66.0605V16.6839H69.7037V17.6667H65.0334V9.66666H69.7037V10.6495Z" fill="white"/>
<path d="M69.7036 10.6495V10.5161H65.9271V13.3193H69.2126V14.0136L65.9271 14.014V16.8172H69.5703V17.5333H65.1667V9.79999H69.5703V10.6495H69.7036V10.5161V10.6495H69.837V9.53333H64.9V17.8H69.837V16.5505H66.1938V14.2807H69.4792V13.0527H66.1938V10.7828H69.837V10.6495H69.7036ZM74.0386 17.6667H73.0099V10.6495H70.7755V9.66666H76.273V10.6495H74.0386V17.6667Z" fill="white"/>
<path d="M74.0386 17.6667V17.5333H73.1433V10.5161H70.9089V9.79999H76.1397V10.5161H73.9053V17.6667H74.0386V17.5333V17.6667H74.172V10.7828H76.4063V9.53333H70.6422V10.7828H72.8766V17.8H74.172V17.6667H74.0386ZM80.2506 17.6667V9.66666H81.2782V17.6667H80.2506Z" fill="white"/>
<path d="M80.2505 17.6667H80.3839V9.79999H81.1448V17.5333H80.2505V17.6667H80.3839H80.2505V17.8H81.4115V9.53333H80.1172V17.8H80.2505V17.6667V17.6667ZM85.838 17.6667H84.8093V10.6495H82.5751V9.66666H88.0724V10.6495H85.838V17.6667" fill="white"/>
<path d="M85.838 17.6667V17.5334H84.9427V10.5162H82.7084V9.80008H87.9391V10.5162H85.7047V17.6667H85.838V17.5334V17.6667H85.9714V10.7829H88.2058V9.53342H82.4418V10.7829H84.676V17.8001H85.9714V17.6667H85.838ZM93.3724 15.9631C93.9646 16.5626 94.6891 16.8621 95.5459 16.8621C96.4027 16.8621 97.1276 16.5626 97.7188 15.9631C98.3115 15.3637 98.6084 14.5974 98.6084 13.6667C98.6084 12.7361 98.3115 11.9698 97.7188 11.3703C97.1276 10.7709 96.4027 10.4714 95.5459 10.4714C94.6891 10.4714 93.9646 10.7709 93.3724 11.3703C92.7812 11.9698 92.4844 12.7361 92.4844 13.6667C92.4844 14.5974 92.7812 15.3637 93.3724 15.9631V15.9631ZM98.4792 16.6329C97.6927 17.4417 96.7146 17.8454 95.5459 17.8454C94.376 17.8454 93.3984 17.4417 92.6136 16.6329C91.8266 15.825 91.435 14.8361 91.435 13.6667C91.435 12.4974 91.8266 11.5083 92.6136 10.7006C93.3984 9.89168 94.376 9.48755 95.5459 9.48755C96.7084 9.48755 97.6839 9.89382 98.474 10.7058C99.2631 11.5178 99.6579 12.5047 99.6579 13.6667C99.6579 14.8361 99.264 15.825 98.4792 16.6329" fill="white"/>
<path d="M93.3724 15.9631L93.2776 16.0568C93.8918 16.6803 94.6579 16.9969 95.5459 16.9953C96.4334 16.9969 97.2006 16.6803 97.8136 16.0568C98.4318 15.4328 98.7427 14.6255 98.7418 13.6667C98.7427 12.7079 98.4318 11.9005 97.8136 11.2765C97.2006 10.6531 96.4334 10.3364 95.5459 10.338C94.6579 10.3364 93.8918 10.6531 93.2776 11.2765C92.661 11.9005 92.3495 12.7079 92.3511 13.6667C92.3495 14.6255 92.661 15.4328 93.2776 16.0568L93.3724 15.9631L93.4672 15.8693C92.9016 15.2937 92.6188 14.5697 92.6178 13.6667C92.6188 12.7636 92.9016 12.0396 93.4672 11.464C94.038 10.8885 94.7198 10.6063 95.5459 10.6047C96.3714 10.6063 97.0547 10.8885 97.624 11.464C98.1907 12.0396 98.4735 12.7636 98.4746 13.6667C98.4735 14.5697 98.1907 15.2937 97.624 15.8693C97.0547 16.4448 96.3714 16.7271 95.5459 16.7287C94.7198 16.7271 94.038 16.4448 93.4672 15.8693L93.3724 15.9631V15.9631ZM98.4792 16.6328L98.3839 16.5401C97.6194 17.3235 96.6844 17.7104 95.5459 17.712C94.4068 17.7104 93.4719 17.3235 92.7088 16.5401L92.7052 16.536L92.7088 16.5401C91.9459 15.7541 91.5694 14.8063 91.5683 13.6667C91.5694 12.5271 91.9459 11.5792 92.7088 10.7932C93.4719 10.0099 94.4068 9.6224 95.5459 9.6208C96.6771 9.6224 97.6099 10.0115 98.3787 10.7989C99.1443 11.5885 99.523 12.5349 99.5246 13.6667C99.523 14.8063 99.1454 15.7541 98.3839 16.5401L98.4792 16.6328L98.5751 16.7255C99.3834 15.8953 99.7922 14.8656 99.7912 13.6667C99.7922 12.4745 99.3818 11.4469 98.5698 10.6131C97.7574 9.776 96.7396 9.35267 95.5459 9.35413C94.3459 9.35267 93.3251 9.774 92.5178 10.6079V10.6073C91.7079 11.438 91.3006 12.4677 91.3016 13.6667C91.3006 14.8656 91.7079 15.8953 92.5178 16.726L92.5214 16.7297L92.5178 16.7255C93.3251 17.5593 94.3459 17.9797 95.5459 17.9787C96.7454 17.9797 97.7662 17.5593 98.5751 16.7255L98.4792 16.6328V16.6328ZM101.101 17.6667V9.66667H102.352L106.24 15.8901H106.284L106.24 14.3484V9.66667H107.268V17.6667H106.195L102.128 11.1416H102.083L102.128 12.6839V17.6667H101.101Z" fill="white"/>
<path d="M101.101 17.6667H101.234V9.79999H102.278L106.166 16.0235H106.421L106.373 14.3464V9.79999H107.135V17.5333H106.269L102.202 11.0083H101.946L101.994 12.686V17.5333H101.101V17.6667H101.234H101.101V17.8H102.261V12.6817L102.217 11.138L102.083 11.1416V11.2749H102.128V11.1416L102.015 11.2125L106.121 17.8H107.402V9.53333H106.106V14.35L106.151 15.8937L106.284 15.8901V15.7568H106.24V15.8901L106.353 15.8193L102.426 9.53333H100.967V17.8H101.101V17.6667V17.6667ZM142.915 40.3333H145.403V23.6651H142.915V40.3333ZM165.324 29.6693L162.472 36.8959H162.387L159.427 29.6693H156.747L161.185 39.7697L158.655 45.388H161.251L168.091 29.6693H165.324V29.6693ZM151.215 38.4401C150.399 38.4401 149.263 38.0328 149.263 37.0245C149.263 35.738 150.679 35.2448 151.9 35.2448C152.995 35.2448 153.508 35.4807 154.173 35.8027C153.98 37.3464 152.651 38.4401 151.215 38.4401V38.4401ZM151.515 29.3047C149.713 29.3047 147.848 30.0984 147.076 31.8568L149.284 32.7787C149.756 31.8568 150.635 31.5563 151.557 31.5563C152.844 31.5563 154.152 32.3287 154.173 33.7011V33.8724C153.723 33.6151 152.759 33.2292 151.579 33.2292C149.199 33.2292 146.775 34.5369 146.775 36.9817C146.775 39.212 148.727 40.6489 150.913 40.6489C152.587 40.6489 153.508 39.8984 154.088 39.0193H154.173V40.3057H156.575V33.9151C156.575 30.9563 154.367 29.3047 151.515 29.3047V29.3047ZM136.139 31.6984H132.6V25.9849H136.139C137.999 25.9849 139.055 27.5249 139.055 28.8416C139.055 30.1333 137.999 31.6984 136.139 31.6984ZM136.075 23.6651H130.113V40.3333H132.6V34.0183H136.075C138.832 34.0183 141.543 32.0219 141.543 28.8416C141.543 25.6615 138.832 23.6651 136.075 23.6651V23.6651ZM103.567 38.4432C101.848 38.4432 100.409 37.0041 100.409 35.0276C100.409 33.0303 101.848 31.5693 103.567 31.5693C105.264 31.5693 106.595 33.0303 106.595 35.0276C106.595 37.0041 105.264 38.4432 103.567 38.4432ZM106.424 30.6027H106.338C105.779 29.9369 104.705 29.3355 103.352 29.3355C100.516 29.3355 97.9173 31.8271 97.9173 35.0276C97.9173 38.2068 100.516 40.6771 103.352 40.6771C104.705 40.6771 105.779 40.0755 106.338 39.3885H106.424V40.2047C106.424 42.3745 105.264 43.5344 103.395 43.5344C101.87 43.5344 100.925 42.4385 100.538 41.5151L98.3683 42.4172C98.9912 43.9208 100.645 45.7683 103.395 45.7683C106.316 45.7683 108.786 44.0495 108.786 39.8609V29.6792H106.424V30.6027V30.6027ZM110.505 40.3333H112.996V23.6645H110.505V40.3333V40.3333ZM116.67 34.8344C116.605 32.6432 118.367 31.5265 119.634 31.5265C120.623 31.5265 121.46 32.0203 121.739 32.7297L116.67 34.8344ZM124.403 32.9443C123.931 31.6765 122.491 29.3355 119.548 29.3355C116.627 29.3355 114.2 31.6339 114.2 35.0063C114.2 38.1855 116.605 40.6771 119.827 40.6771C122.427 40.6771 123.931 39.0875 124.553 38.164L122.62 36.8749C121.976 37.8203 121.095 38.4432 119.827 38.4432C118.56 38.4432 117.658 37.8631 117.078 36.7249L124.66 33.5885L124.403 32.9443V32.9443ZM63.9918 31.0755V33.4812H69.7485C69.5766 34.8344 69.1255 35.8224 68.438 36.5099C67.6006 37.3479 66.2902 38.2713 63.9918 38.2713C60.4474 38.2713 57.6766 35.4145 57.6766 31.8703C57.6766 28.326 60.4474 25.4688 63.9918 25.4688C65.9036 25.4688 67.2995 26.2208 68.3307 27.1875L70.0276 25.4907C68.5886 24.1156 66.6766 23.0631 63.9918 23.0631C59.137 23.0631 55.0558 27.0156 55.0558 31.8703C55.0558 36.7249 59.137 40.6771 63.9918 40.6771C66.6126 40.6771 68.5886 39.8183 70.135 38.2068C71.7246 36.6172 72.2188 34.3833 72.2188 32.5792C72.2188 32.0203 72.1761 31.5052 72.0897 31.0755H63.9918V31.0755ZM78.7636 38.4432C77.0448 38.4432 75.5626 37.0255 75.5626 35.0063C75.5626 32.9656 77.0448 31.5693 78.7636 31.5693C80.4818 31.5693 81.9641 32.9656 81.9641 35.0063C81.9641 37.0255 80.4818 38.4432 78.7636 38.4432ZM78.7636 29.3355C75.6271 29.3355 73.0709 31.7197 73.0709 35.0063C73.0709 38.2713 75.6271 40.6771 78.7636 40.6771C81.8995 40.6771 84.4558 38.2713 84.4558 35.0063C84.4558 31.7197 81.8995 29.3355 78.7636 29.3355V29.3355ZM91.1813 38.4432C89.4631 38.4432 87.9807 37.0255 87.9807 35.0063C87.9807 32.9656 89.4631 31.5693 91.1813 31.5693C92.8995 31.5693 94.3818 32.9656 94.3818 35.0063C94.3818 37.0255 92.8995 38.4432 91.1813 38.4432ZM91.1813 29.3355C88.0449 29.3355 85.4891 31.7197 85.4891 35.0063C85.4891 38.2713 88.0449 40.6771 91.1813 40.6771C94.3173 40.6771 96.8735 38.2713 96.8735 35.0063C96.8735 31.7197 94.3173 29.3355 91.1813 29.3355" fill="white"/>
<mask id="mask0_340_404" style="mask-type:alpha" maskUnits="userSpaceOnUse" x="13" y="10" width="18" height="34">
<path d="M14.3464 43.5194L14.2473 43.4246C13.8593 43.0141 13.6302 42.3766 13.6302 41.5511V41.7454V12.2579V12.4527C13.6302 11.5589 13.8973 10.8855 14.3448 10.4818L30.8645 27.0011L14.3464 43.5194ZM13.6302 12.249C13.6302 12.1755 13.6322 12.1042 13.636 12.0339C13.6322 12.1037 13.6302 12.1755 13.6302 12.249Z" fill="white"/>
</mask>
<g mask="url(#mask0_340_404)">
<path d="M14.3464 43.5194L14.2473 43.4246C13.8593 43.0141 13.6302 42.3766 13.6302 41.5511V41.7454V12.2579V12.4527C13.6302 11.5589 13.8973 10.8855 14.3448 10.4818L30.8645 27.0011L14.3464 43.5194ZM13.6302 12.249C13.6302 12.1755 13.6322 12.1042 13.636 12.0339C13.6322 12.1037 13.6302 12.1755 13.6302 12.249Z" fill="url(#paint0_linear_340_404)"/>
</g>
<mask id="mask1_340_404" style="mask-type:alpha" maskUnits="userSpaceOnUse" x="30" y="21" width="15" height="12">
<path d="M36.3704 32.7047L36.496 32.6334L43.0198 28.9266C43.6418 28.573 44.0564 28.1443 44.2632 27.6907C44.0569 28.1443 43.6422 28.5735 43.0198 28.9271L36.496 32.6339L36.3704 32.7047V32.7047ZM36.372 32.5094L30.8646 27.0011L36.3714 21.4938L43.0198 25.2708C43.8641 25.7506 44.3381 26.3688 44.4173 27.0006V27.0031C44.3381 27.6334 43.8641 28.2522 43.0198 28.7318L36.372 32.5094" fill="white"/>
</mask>
<g mask="url(#mask1_340_404)">
<path d="M36.3704 32.7047L36.496 32.6334L43.0198 28.9266C43.6418 28.573 44.0564 28.1443 44.2632 27.6907C44.0569 28.1443 43.6422 28.5735 43.0198 28.9271L36.496 32.6339L36.3704 32.7047V32.7047ZM36.372 32.5094L30.8646 27.0011L36.3714 21.4938L43.0198 25.2708C43.8641 25.7506 44.3381 26.3688 44.4173 27.0006V27.0031C44.3381 27.6334 43.8641 28.2522 43.0198 28.7318L36.372 32.5094" fill="url(#paint1_linear_340_404)"/>
</g>
<mask id="mask2_340_404" style="mask-type:alpha" maskUnits="userSpaceOnUse" x="14" y="27" width="23" height="18">
<path d="M15.524 44.1484C15.0625 44.1484 14.6599 43.9984 14.3459 43.7151L14.3464 43.7146C14.6604 43.9979 15.0636 44.1484 15.5251 44.1484C15.5651 44.1484 15.6057 44.1474 15.6469 44.1454C15.6052 44.1474 15.564 44.1484 15.524 44.1484ZM15.5245 43.9531C15.0631 43.9536 14.6604 43.8031 14.3464 43.5198V43.5194L30.8645 27.0011L36.3719 32.5094L17.0183 43.5058C16.4828 43.8094 15.9755 43.9531 15.5245 43.9531V43.9531ZM14.3417 43.7115C14.3125 43.685 14.2839 43.6568 14.2557 43.6276L14.3417 43.7115" fill="white"/>
</mask>
<g mask="url(#mask2_340_404)">
<path d="M15.524 44.1484C15.0625 44.1484 14.6599 43.9984 14.3459 43.7151L14.3464 43.7146C14.6604 43.9979 15.0636 44.1484 15.5251 44.1484C15.5651 44.1484 15.6057 44.1474 15.6469 44.1454C15.6052 44.1474 15.564 44.1484 15.524 44.1484ZM15.5245 43.9531C15.0631 43.9536 14.6604 43.8031 14.3464 43.5198V43.5194L30.8645 27.0011L36.3719 32.5094L17.0183 43.5058C16.4828 43.8094 15.9755 43.9531 15.5245 43.9531V43.9531ZM14.3417 43.7115C14.3125 43.685 14.2839 43.6568 14.2557 43.6276L14.3417 43.7115" fill="url(#paint2_linear_340_404)"/>
</g>
<mask id="mask3_340_404" style="mask-type:alpha" maskUnits="userSpaceOnUse" x="14" y="9" width="23" height="19">
<path d="M30.8646 27.0011L14.3448 10.4818C14.6588 10.199 15.061 10.049 15.5219 10.049C15.974 10.049 16.4818 10.1932 17.0183 10.4974L36.3714 21.4938L30.8646 27.0011ZM36.4959 21.3694L17.0183 10.3027C16.4818 9.99843 15.974 9.85417 15.5219 9.85417H15.5162H15.524C15.9751 9.85417 16.4823 9.9979 17.0183 10.3022L36.4959 21.3694Z" fill="white"/>
</mask>
<g mask="url(#mask3_340_404)">
<path d="M30.8646 27.0011L14.3448 10.4818C14.6588 10.199 15.061 10.049 15.5219 10.049C15.974 10.049 16.4818 10.1932 17.0183 10.4974L36.3714 21.4938L30.8646 27.0011ZM36.4959 21.3694L17.0183 10.3027C16.4818 9.99843 15.974 9.85417 15.5219 9.85417H15.5162H15.524C15.9751 9.85417 16.4823 9.9979 17.0183 10.3022L36.4959 21.3694Z" fill="url(#paint3_linear_340_404)"/>
</g>
<path d="M15.647 44.1454C16.0662 44.1214 16.5303 43.9771 17.0183 43.7006L36.3703 32.7047L17.0183 43.7006C16.5307 43.9776 16.0662 44.1214 15.647 44.1454Z" fill="black"/>
<mask id="mask4_340_404" style="mask-type:alpha" maskUnits="userSpaceOnUse" x="36" y="32" width="1" height="1">
<path d="M36.3704 32.7047L36.496 32.6334L36.3704 32.7047Z" fill="white"/>
</mask>
<g mask="url(#mask4_340_404)">
<path d="M36.3704 32.7047L36.496 32.6334L36.3704 32.7047Z" fill="url(#paint4_linear_340_404)"/>
</g>
<mask id="mask5_340_404" style="mask-type:alpha" maskUnits="userSpaceOnUse" x="14" y="32" width="23" height="13">
<path d="M15.525 44.1484C15.0636 44.1484 14.6604 43.9979 14.3464 43.7146L14.3458 43.7151C14.3448 43.714 14.3432 43.7126 14.3417 43.7115L14.2557 43.6276C14.253 43.625 14.2505 43.6219 14.2473 43.6188L14.3464 43.5198C14.6604 43.8031 15.063 43.9536 15.5245 43.9531C15.9754 43.9531 16.4828 43.8094 17.0182 43.5058L36.3718 32.5094L36.4958 32.6334L36.3702 32.7047L17.0182 43.7006C16.5302 43.9771 16.0661 44.1214 15.6469 44.1454C15.6057 44.1474 15.565 44.1484 15.525 44.1484Z" fill="white"/>
</mask>
<g mask="url(#mask5_340_404)">
<path d="M15.525 44.1484C15.0636 44.1484 14.6604 43.9979 14.3464 43.7146L14.3458 43.7151C14.3448 43.714 14.3432 43.7126 14.3417 43.7115L14.2557 43.6276C14.253 43.625 14.2505 43.6219 14.2473 43.6188L14.3464 43.5198C14.6604 43.8031 15.063 43.9536 15.5245 43.9531C15.9754 43.9531 16.4828 43.8094 17.0182 43.5058L36.3718 32.5094L36.4958 32.6334L36.3702 32.7047L17.0182 43.7006C16.5302 43.9771 16.0661 44.1214 15.6469 44.1454C15.6057 44.1474 15.565 44.1484 15.525 44.1484Z" fill="url(#paint5_linear_340_404)"/>
</g>
<path d="M14.2473 43.6194C13.8593 43.2088 13.6302 42.5714 13.6302 41.7459V41.7454C13.6302 42.5714 13.8593 43.2083 14.2473 43.6188V43.6194Z" fill="black"/>
<mask id="mask6_340_404" style="mask-type:alpha" maskUnits="userSpaceOnUse" x="13" y="41" width="2" height="3">
<path d="M14.2473 43.6189C13.8593 43.2084 13.6302 42.5714 13.6302 41.7454V41.5512C13.6302 42.3766 13.8593 43.0141 14.2473 43.4246L14.3464 43.5194L14.2473 43.6189Z" fill="white"/>
</mask>
<g mask="url(#mask6_340_404)">
<path d="M14.2473 43.6189C13.8593 43.2084 13.6302 42.5714 13.6302 41.7454V41.5512C13.6302 42.3766 13.8593 43.0141 14.2473 43.4246L14.3464 43.5194L14.2473 43.6189Z" fill="url(#paint6_linear_340_404)"/>
</g>
<mask id="mask7_340_404" style="mask-type:alpha" maskUnits="userSpaceOnUse" x="14" y="43" width="1" height="1">
<path d="M14.2473 43.6189L14.3464 43.5194V43.5198L14.2473 43.6189Z" fill="white"/>
</mask>
<g mask="url(#mask7_340_404)">
<path d="M14.2473 43.6189L14.3464 43.5194V43.5198L14.2473 43.6189Z" fill="url(#paint7_linear_340_404)"/>
</g>
<path d="M44.2631 27.6907C44.3656 27.4657 44.4172 27.2345 44.4172 27.0031V27.0022C44.4172 27.2339 44.3656 27.4651 44.2631 27.6907Z" fill="black"/>
<mask id="mask8_340_404" style="mask-type:alpha" maskUnits="userSpaceOnUse" x="36" y="27" width="9" height="6">
<path d="M36.4959 32.6334L36.3719 32.5094L43.0198 28.7318C43.8641 28.2522 44.3381 27.6334 44.4173 27.0032C44.4173 27.2345 44.3657 27.4657 44.2631 27.6908C44.0563 28.1444 43.6418 28.573 43.0198 28.9266L36.4959 32.6334Z" fill="white"/>
</mask>
<g mask="url(#mask8_340_404)">
<path d="M36.4959 32.6334L36.3719 32.5094L43.0198 28.7318C43.8641 28.2522 44.3381 27.6334 44.4173 27.0032C44.4173 27.2345 44.3657 27.4657 44.2631 27.6908C44.0563 28.1444 43.6418 28.573 43.0198 28.9266L36.4959 32.6334Z" fill="url(#paint8_linear_340_404)"/>
</g>
<path d="M44.4172 27.0011V27.0006C44.4167 26.3031 43.9506 25.6058 43.0198 25.0766L36.4959 21.3698H36.4954L36.4959 21.3694L43.0198 25.076C43.9516 25.6052 44.4183 26.3037 44.4172 27.0011Z" fill="#404040"/>
<mask id="mask9_340_404" style="mask-type:alpha" maskUnits="userSpaceOnUse" x="36" y="21" width="9" height="7">
<path d="M44.4172 27.0006C44.338 26.3689 43.864 25.7506 43.0197 25.2709L36.3713 21.4938L36.4953 21.3698H36.4959L43.0197 25.0766C43.9505 25.6058 44.4167 26.3031 44.4172 27.0006" fill="white"/>
</mask>
<g mask="url(#mask9_340_404)">
<path d="M44.4172 27.0006C44.338 26.3689 43.864 25.7506 43.0197 25.2709L36.3713 21.4938L36.4953 21.3698H36.4959L43.0197 25.0766C43.9505 25.6058 44.4167 26.3031 44.4172 27.0006" fill="url(#paint9_linear_340_404)"/>
</g>
<path d="M13.6365 12.0197C13.7137 10.65 14.4585 9.85879 15.5121 9.85413C15.0553 9.85679 14.6574 10.0068 14.3459 10.2875V10.2869L14.3422 10.2907C14.3094 10.3203 14.2782 10.3516 14.2474 10.3839C13.8974 10.7541 13.6766 11.3088 13.6365 12.0197" fill="#404040"/>
<mask id="mask10_340_404" style="mask-type:alpha" maskUnits="userSpaceOnUse" x="13" y="10" width="2" height="3">
<path d="M13.6302 12.4528V12.249C13.6302 12.1756 13.6322 12.1037 13.636 12.034V12.0308C13.636 12.0298 13.636 12.0288 13.6364 12.0277V12.0198C13.6765 11.3089 13.8973 10.7542 14.2473 10.384L14.3448 10.4818C13.8973 10.8856 13.6302 11.5589 13.6302 12.4528Z" fill="white"/>
</mask>
<g mask="url(#mask10_340_404)">
<path d="M13.6302 12.4528V12.249C13.6302 12.1756 13.6322 12.1037 13.636 12.034V12.0308C13.636 12.0298 13.636 12.0288 13.6364 12.0277V12.0198C13.6765 11.3089 13.8973 10.7542 14.2473 10.384L14.3448 10.4818C13.8973 10.8856 13.6302 11.5589 13.6302 12.4528Z" fill="url(#paint10_linear_340_404)"/>
</g>
<mask id="mask11_340_404" style="mask-type:alpha" maskUnits="userSpaceOnUse" x="14" y="9" width="23" height="13">
<path d="M36.3713 21.4938L17.0182 10.4974C16.4817 10.1932 15.974 10.049 15.5218 10.049C15.0609 10.049 14.6588 10.199 14.3448 10.4818L14.2473 10.3839C14.2781 10.3516 14.3093 10.3203 14.3421 10.2907C14.3432 10.2896 14.3448 10.2886 14.3458 10.2875C14.6573 10.0068 15.0552 9.85684 15.512 9.85417H15.5218C15.974 9.85417 16.4817 9.99844 17.0182 10.3027L36.4958 21.3694L36.4953 21.3698L36.3713 21.4938" fill="white"/>
</mask>
<g mask="url(#mask11_340_404)">
<path d="M36.3713 21.4938L17.0182 10.4974C16.4817 10.1932 15.974 10.049 15.5218 10.049C15.0609 10.049 14.6588 10.199 14.3448 10.4818L14.2473 10.3839C14.2781 10.3516 14.3093 10.3203 14.3421 10.2907C14.3432 10.2896 14.3448 10.2886 14.3458 10.2875C14.6573 10.0068 15.0552 9.85684 15.512 9.85417H15.5218C15.974 9.85417 16.4817 9.99844 17.0182 10.3027L36.4958 21.3694L36.4953 21.3698L36.3713 21.4938" fill="url(#paint11_linear_340_404)"/>
</g>
<defs>
<linearGradient id="paint0_linear_340_404" x1="24.1937" y1="11.9463" x2="9.96075" y2="26.1793" gradientUnits="userSpaceOnUse">
<stop stop-color="#00A0FF"/>
<stop offset="0.00657445" stop-color="#00A1FF"/>
<stop offset="0.2601" stop-color="#00BEFF"/>
<stop offset="0.5122" stop-color="#00D2FF"/>
<stop offset="0.7604" stop-color="#00DFFF"/>
<stop offset="1" stop-color="#00E3FF"/>
</linearGradient>
<linearGradient id="paint1_linear_340_404" x1="45.446" y1="27.0019" x2="13.1833" y2="27.0019" gradientUnits="userSpaceOnUse">
<stop stop-color="#FFE000"/>
<stop offset="0.4087" stop-color="#FFBD00"/>
<stop offset="0.7754" stop-color="#FFA500"/>
<stop offset="1" stop-color="#FF9C00"/>
</linearGradient>
<linearGradient id="paint2_linear_340_404" x1="33.436" y1="32.2605" x2="9.1432" y2="56.5533" gradientUnits="userSpaceOnUse">
<stop stop-color="#FF3A44"/>
<stop offset="1" stop-color="#C31162"/>
</linearGradient>
<linearGradient id="paint3_linear_340_404" x1="10.0631" y1="7.72603" x2="20.8978" y2="18.5607" gradientUnits="userSpaceOnUse">
<stop stop-color="#32A071"/>
<stop offset="0.0685" stop-color="#2DA771"/>
<stop offset="0.4762" stop-color="#15CF74"/>
<stop offset="0.8009" stop-color="#06E775"/>
<stop offset="1" stop-color="#00F076"/>
</linearGradient>
<linearGradient id="paint4_linear_340_404" x1="44.9232" y1="29.6371" x2="14.5318" y2="29.6371" gradientUnits="userSpaceOnUse">
<stop stop-color="#CCB300"/>
<stop offset="0.4087" stop-color="#CC9700"/>
<stop offset="0.7754" stop-color="#CC8400"/>
<stop offset="1" stop-color="#CC7D00"/>
</linearGradient>
<linearGradient id="paint5_linear_340_404" x1="33.436" y1="36.0663" x2="14.1115" y2="55.3908" gradientUnits="userSpaceOnUse">
<stop stop-color="#CC2E36"/>
<stop offset="1" stop-color="#9C0E4E"/>
</linearGradient>
<linearGradient id="paint6_linear_340_404" x1="15.8369" y1="11.9464" x2="3.30654" y2="24.4767" gradientUnits="userSpaceOnUse">
<stop stop-color="#008DE0"/>
<stop offset="0.00657445" stop-color="#008DE0"/>
<stop offset="0.2601" stop-color="#00A7E0"/>
<stop offset="0.5122" stop-color="#00B8E0"/>
<stop offset="0.7604" stop-color="#00C4E0"/>
<stop offset="1" stop-color="#00C7E0"/>
</linearGradient>
<linearGradient id="paint7_linear_340_404" x1="28.5172" y1="33.4925" x2="5.88049" y2="56.0382" gradientUnits="userSpaceOnUse">
<stop stop-color="#E0333C"/>
<stop offset="1" stop-color="#AB0F56"/>
</linearGradient>
<linearGradient id="paint8_linear_340_404" x1="45.4459" y1="27.002" x2="13.1833" y2="27.002" gradientUnits="userSpaceOnUse">
<stop stop-color="#E0C500"/>
<stop offset="0.4087" stop-color="#E0A600"/>
<stop offset="0.7754" stop-color="#E09100"/>
<stop offset="1" stop-color="#E08900"/>
</linearGradient>
<linearGradient id="paint9_linear_340_404" x1="45.4459" y1="27.0019" x2="13.1832" y2="27.0019" gradientUnits="userSpaceOnUse">
<stop stop-color="#FFE840"/>
<stop offset="0.4087" stop-color="#FFCE40"/>
<stop offset="0.7754" stop-color="#FFBC40"/>
<stop offset="1" stop-color="#FFB540"/>
</linearGradient>
<linearGradient id="paint10_linear_340_404" x1="15.8232" y1="11.969" x2="3.75448" y2="23.5148" gradientUnits="userSpaceOnUse">
<stop stop-color="#40B8FF"/>
<stop offset="0.00657445" stop-color="#40B9FF"/>
<stop offset="0.2601" stop-color="#40CEFF"/>
<stop offset="0.5122" stop-color="#40DDFF"/>
<stop offset="0.7604" stop-color="#40E7FF"/>
<stop offset="1" stop-color="#40EAFF"/>
</linearGradient>
<linearGradient id="paint11_linear_340_404" x1="10.063" y1="11.5396" x2="18.6924" y2="20.1689" gradientUnits="userSpaceOnUse">
<stop stop-color="#65B895"/>
<stop offset="0.0685" stop-color="#62BD95"/>
<stop offset="0.4762" stop-color="#50DB97"/>
<stop offset="0.8009" stop-color="#44ED98"/>
<stop offset="1" stop-color="#40F498"/>
</linearGradient>
</defs>
</svg>
