<svg width="15" height="15" viewBox="0 0 15 15" fill="none" xmlns="http://www.w3.org/2000/svg">
<path fill-rule="evenodd" clip-rule="evenodd" d="M1.07978 0.0986943C0.915929 0.280954 0.821289 0.559448 0.821289 0.923968V13.8528C0.821289 14.2173 0.915929 14.4958 1.08543 14.6708L1.12922 14.7101L8.14669 7.46638V7.30453L1.12357 0.0593262L1.07978 0.0986943Z" fill="url(#paint0_linear_872_4120)"/>
<path fill-rule="evenodd" clip-rule="evenodd" d="M10.1047 10.2023L7.5835 7.75233V7.58082L10.1047 5.13086L10.1595 5.16339L13.1417 6.81049C13.9953 7.27771 13.9953 8.04952 13.1417 8.52265L10.1595 10.1698L10.1047 10.2023Z" fill="url(#paint1_linear_872_4120)"/>
<path fill-rule="evenodd" clip-rule="evenodd" d="M10.1044 10.2022L7.58319 7.6665L0.821289 14.7658C1.08325 15.0442 1.52271 15.0754 2.0137 14.8041" fill="url(#paint2_linear_872_4120)"/>
<path fill-rule="evenodd" clip-rule="evenodd" d="M10.1044 5.13075L2.0137 0.250014C1.52271 -0.0284968 1.08182 0.00986945 0.821289 0.28838L7.58319 7.66647L10.1044 5.13075Z" fill="url(#paint3_linear_872_4120)"/>
<path opacity="0.2" d="M10.3434 9.86426L2.0137 14.6552C1.54847 14.9262 1.13335 14.9074 0.865664 14.661L0.821289 14.706L0.865664 14.7451C1.13335 14.99 1.54847 15.0103 2.0137 14.7393L10.4007 9.91643L10.3434 9.86426Z" fill="black"/>
<path opacity="0.12" d="M13.0894 8.36014L10.2881 9.87254L10.3385 9.92047L13.0824 8.43735C13.4758 8.22434 13.669 7.94476 13.669 7.6665C13.6452 7.92212 13.445 8.16443 13.0894 8.36014Z" fill="black"/>
<path opacity="0.25" fill-rule="evenodd" clip-rule="evenodd" d="M2.30607 0.334819L13.7328 6.64465C14.104 6.84778 14.3129 7.11341 14.3451 7.38472C14.3451 7.08784 14.1434 6.78954 13.7328 6.56226L2.30607 0.252431C1.48623 -0.203547 0.821289 0.177145 0.821289 1.08768V1.17007C0.821289 0.258113 1.48623 -0.115477 2.30607 0.334819Z" fill="white"/>
<defs>
<linearGradient id="paint0_linear_872_4120" x1="5.06409" y1="-8.72145" x2="-6.22245" y2="-5.80879" gradientUnits="userSpaceOnUse">
<stop stop-color="#00A0FF"/>
<stop offset="0.00657" stop-color="#00A1FF"/>
<stop offset="0.2601" stop-color="#00BEFF"/>
<stop offset="0.5122" stop-color="#00D2FF"/>
<stop offset="0.7604" stop-color="#00DFFF"/>
<stop offset="1" stop-color="#00E3FF"/>
</linearGradient>
<linearGradient id="paint1_linear_872_4120" x1="14.2549" y1="1.62698" x2="-0.508637" y2="1.62698" gradientUnits="userSpaceOnUse">
<stop stop-color="#FFE000"/>
<stop offset="0.4087" stop-color="#FFBD00"/>
<stop offset="0.7754" stop-color="#FFA500"/>
<stop offset="1" stop-color="#FF9C00"/>
</linearGradient>
<linearGradient id="paint2_linear_872_4120" x1="0.615466" y1="3.97987" x2="-8.55757" y2="19.0608" gradientUnits="userSpaceOnUse">
<stop stop-color="#FF3A44"/>
<stop offset="1" stop-color="#C31162"/>
</linearGradient>
<linearGradient id="paint3_linear_872_4120" x1="-4.59408" y1="-1.74606" x2="-0.268889" y2="5.1056" gradientUnits="userSpaceOnUse">
<stop stop-color="#32A071"/>
<stop offset="0.0685" stop-color="#2DA771"/>
<stop offset="0.4762" stop-color="#15CF74"/>
<stop offset="0.8009" stop-color="#06E775"/>
<stop offset="1" stop-color="#00F076"/>
</linearGradient>
</defs>
</svg>
