<svg width="11" height="10" xmlns="http://www.w3.org/2000/svg" xmlns:xlink="http://www.w3.org/1999/xlink"><defs><path d="M2.170348 5.735111 1.67703 8.642058c-.039325.230924.217263.404211.429463.290807l2.56588-1.363087 2.56588 1.363462c.210254.11228.469178-.057638.429464-.290807l-.493319-2.906948 2.086967-2.056234c.165478-.162807.070474-.439017-.164699-.47345L6.223971 2.784 4.93636.14765c-.096172-.196866-.43219-.196866-.528361 0L3.120775 2.783625l-2.872695.4218c-.235952.034808-.330177.310644-.164699.473451l2.086967 2.056234Z" id="a"/></defs><g transform="translate(.907543 .592)" fill="none" fill-rule="evenodd"><mask id="b" fill="#fff"><use xlink:href="#a"/></mask><use fill="#FBE9D0" fill-rule="nonzero" opacity=".4" xlink:href="#a"/><path fill="#ED8D00" mask="url(#b)" d="M0 0h4.672315v9H0z"/></g></svg>