<svg width="210" height="63" viewBox="0 0 210 63" fill="none" xmlns="http://www.w3.org/2000/svg">
<g clip-path="url(#clip0_427_5021)">
<path d="M200.718 0H9.28177C4.15559 0 0 4.17868 0 9.33333V53.6667C0 58.8213 4.15559 63 9.28177 63H200.718C205.844 63 210 58.8213 210 53.6667V9.33333C210 4.17868 205.844 0 200.718 0Z" fill="black"/>
<path d="M69.9614 26.6851H67.8947L67.9083 25.6178H69.9614C70.6684 25.6178 71.2576 25.4705 71.7289 25.1759C72.2002 24.8768 72.5538 24.4598 72.7894 23.925C73.0296 23.3857 73.1497 22.7557 73.1497 22.0351V21.4301C73.1497 20.8636 73.0817 20.3605 72.9458 19.9209C72.8098 19.4768 72.6104 19.1029 72.3475 18.7992C72.0847 18.491 71.7629 18.2576 71.3822 18.099C71.006 17.9404 70.5732 17.8611 70.0838 17.8611H67.854V16.787H70.0838C70.7318 16.787 71.3233 16.8957 71.8581 17.1133C72.3929 17.3263 72.8529 17.6367 73.2381 18.0446C73.6279 18.448 73.927 18.9374 74.1355 19.513C74.3439 20.0841 74.4482 20.7276 74.4482 21.4437V22.0351C74.4482 22.7512 74.3439 23.397 74.1355 23.9726C73.927 24.5437 73.6256 25.0309 73.2313 25.4342C72.8415 25.8376 72.3702 26.148 71.8173 26.3656C71.2689 26.5786 70.6503 26.6851 69.9614 26.6851ZM68.595 16.787V26.6851H67.2829V16.787H68.595Z" fill="white"/>
<path d="M75.8962 23.0889V22.9325C75.8962 22.4022 75.9732 21.9105 76.1273 21.4573C76.2814 20.9996 76.5035 20.603 76.7935 20.2676C77.0836 19.9277 77.4348 19.6648 77.8473 19.479C78.2597 19.2887 78.722 19.1935 79.2341 19.1935C79.7508 19.1935 80.2153 19.2887 80.6277 19.479C81.0447 19.6648 81.3982 19.9277 81.6882 20.2676C81.9828 20.603 82.2072 20.9996 82.3612 21.4573C82.5153 21.9105 82.5924 22.4022 82.5924 22.9325V23.0889C82.5924 23.6191 82.5153 24.1109 82.3612 24.5641C82.2072 25.0173 81.9828 25.4138 81.6882 25.7537C81.3982 26.0891 81.0469 26.352 80.6345 26.5423C80.2266 26.7281 79.7643 26.8211 79.2477 26.8211C78.731 26.8211 78.2665 26.7281 77.8541 26.5423C77.4416 26.352 77.0881 26.0891 76.7935 25.7537C76.5035 25.4138 76.2814 25.0173 76.1273 24.5641C75.9732 24.1109 75.8962 23.6191 75.8962 23.0889ZM77.1539 22.9325V23.0889C77.1539 23.456 77.1969 23.8027 77.283 24.129C77.3691 24.4508 77.4983 24.7363 77.6705 24.9855C77.8473 25.2348 78.0671 25.432 78.3299 25.577C78.5928 25.7175 78.8987 25.7877 79.2477 25.7877C79.5921 25.7877 79.8935 25.7175 80.1518 25.577C80.4147 25.432 80.6322 25.2348 80.8045 24.9855C80.9767 24.7363 81.1059 24.4508 81.192 24.129C81.2826 23.8027 81.3279 23.456 81.3279 23.0889V22.9325C81.3279 22.5699 81.2826 22.2278 81.192 21.906C81.1059 21.5797 80.9744 21.2919 80.7977 21.0426C80.6254 20.7888 80.4079 20.5894 80.145 20.4444C79.8867 20.2993 79.5831 20.2268 79.2341 20.2268C78.8896 20.2268 78.586 20.2993 78.3231 20.4444C78.0648 20.5894 77.8473 20.7888 77.6705 21.0426C77.4983 21.2919 77.3691 21.5797 77.283 21.906C77.1969 22.2278 77.1539 22.5699 77.1539 22.9325Z" fill="white"/>
<path d="M86.0323 25.3798L87.9222 19.3295H88.7515L88.5884 20.5327L86.6645 26.6851H85.8555L86.0323 25.3798ZM84.761 19.3295L86.3722 25.4478L86.4877 26.6851H85.638L83.5033 19.3295H84.761ZM90.5598 25.4002L92.0962 19.3295H93.3471L91.2125 26.6851H90.3695L90.5598 25.4002ZM88.9351 19.3295L90.7842 25.2779L90.9949 26.6851H90.1927L88.2145 20.5192L88.0513 19.3295H88.9351Z" fill="white"/>
<path d="M95.8964 20.8998V26.6851H94.6387V19.3295H95.8284L95.8964 20.8998ZM95.5973 22.7286L95.0738 22.7082C95.0784 22.2051 95.1531 21.7406 95.2982 21.3145C95.4432 20.884 95.6471 20.5101 95.91 20.1928C96.1729 19.8756 96.4856 19.6309 96.8481 19.4586C97.2153 19.2819 97.6209 19.1935 98.065 19.1935C98.4276 19.1935 98.7539 19.2434 99.044 19.3431C99.334 19.4382 99.581 19.5923 99.785 19.8053C99.9934 20.0184 100.152 20.2948 100.261 20.6347C100.37 20.9701 100.424 21.3803 100.424 21.8652V26.6851H99.1595V21.8516C99.1595 21.4664 99.1029 21.1582 98.9896 20.927C98.8763 20.6914 98.7108 20.5214 98.4933 20.4172C98.2758 20.3084 98.0084 20.254 97.6911 20.254C97.3784 20.254 97.0929 20.3197 96.8346 20.4512C96.5808 20.5826 96.3609 20.7639 96.1751 20.995C95.9938 21.2262 95.8511 21.4913 95.7468 21.7904C95.6471 22.085 95.5973 22.3977 95.5973 22.7286Z" fill="white"/>
<path d="M103.701 16.2431V26.6851H102.436V16.2431H103.701Z" fill="white"/>
<path d="M105.387 23.0889V22.9325C105.387 22.4022 105.464 21.9105 105.618 21.4573C105.772 20.9996 105.994 20.603 106.284 20.2676C106.574 19.9277 106.925 19.6648 107.338 19.479C107.75 19.2887 108.212 19.1935 108.725 19.1935C109.241 19.1935 109.706 19.2887 110.118 19.479C110.535 19.6648 110.889 19.9277 111.179 20.2676C111.473 20.603 111.698 20.9996 111.852 21.4573C112.006 21.9105 112.083 22.4022 112.083 22.9325V23.0889C112.083 23.6191 112.006 24.1109 111.852 24.5641C111.698 25.0173 111.473 25.4138 111.179 25.7537C110.889 26.0891 110.537 26.352 110.125 26.5423C109.717 26.7281 109.255 26.8211 108.738 26.8211C108.221 26.8211 107.757 26.7281 107.345 26.5423C106.932 26.352 106.579 26.0891 106.284 25.7537C105.994 25.4138 105.772 25.0173 105.618 24.5641C105.464 24.1109 105.387 23.6191 105.387 23.0889ZM106.644 22.9325V23.0889C106.644 23.456 106.687 23.8027 106.773 24.129C106.86 24.4508 106.989 24.7363 107.161 24.9855C107.338 25.2348 107.558 25.432 107.82 25.577C108.083 25.7175 108.389 25.7877 108.738 25.7877C109.083 25.7877 109.384 25.7175 109.642 25.577C109.905 25.432 110.123 25.2348 110.295 24.9855C110.467 24.7363 110.596 24.4508 110.682 24.129C110.773 23.8027 110.818 23.456 110.818 23.0889V22.9325C110.818 22.5699 110.773 22.2278 110.682 21.906C110.596 21.5797 110.465 21.2919 110.288 21.0426C110.116 20.7888 109.898 20.5894 109.636 20.4444C109.377 20.2993 109.074 20.2268 108.725 20.2268C108.38 20.2268 108.076 20.2993 107.814 20.4444C107.555 20.5894 107.338 20.7888 107.161 21.0426C106.989 21.2919 106.86 21.5797 106.773 21.906C106.687 22.2278 106.644 22.5699 106.644 22.9325Z" fill="white"/>
<path d="M117.997 25.4274V21.6408C117.997 21.3508 117.938 21.0993 117.821 20.8863C117.707 20.6687 117.535 20.501 117.304 20.3832C117.073 20.2654 116.787 20.2064 116.447 20.2064C116.13 20.2064 115.851 20.2608 115.611 20.3696C115.375 20.4784 115.19 20.6211 115.054 20.7979C114.922 20.9746 114.857 21.165 114.857 21.3689H113.599C113.599 21.1061 113.667 20.8455 113.803 20.5871C113.939 20.3288 114.134 20.0954 114.387 19.8869C114.646 19.6739 114.954 19.5062 115.312 19.3839C115.675 19.257 116.078 19.1935 116.522 19.1935C117.057 19.1935 117.528 19.2842 117.936 19.4654C118.348 19.6467 118.67 19.9209 118.901 20.288C119.137 20.6506 119.255 21.1061 119.255 21.6544V25.0807C119.255 25.3255 119.275 25.5861 119.316 25.8625C119.361 26.139 119.427 26.3769 119.513 26.5763V26.6851H118.201C118.138 26.5401 118.088 26.3474 118.052 26.1072C118.015 25.8625 117.997 25.6359 117.997 25.4274ZM118.215 22.2255L118.228 23.1093H116.957C116.599 23.1093 116.28 23.1387 115.999 23.1976C115.718 23.252 115.482 23.3359 115.292 23.4492C115.101 23.5625 114.956 23.7052 114.857 23.8774C114.757 24.0451 114.707 24.2423 114.707 24.4689C114.707 24.7 114.759 24.9108 114.863 25.1011C114.968 25.2915 115.124 25.4433 115.332 25.5566C115.545 25.6654 115.806 25.7198 116.114 25.7198C116.499 25.7198 116.839 25.6382 117.134 25.475C117.428 25.3119 117.662 25.1124 117.834 24.8768C118.011 24.6411 118.106 24.4122 118.12 24.1902L118.657 24.7952C118.625 24.9855 118.539 25.1963 118.398 25.4274C118.258 25.6586 118.07 25.8806 117.834 26.0937C117.603 26.3021 117.327 26.4766 117.005 26.6171C116.687 26.7531 116.329 26.8211 115.931 26.8211C115.432 26.8211 114.995 26.7236 114.619 26.5287C114.247 26.3339 113.957 26.0733 113.748 25.7469C113.544 25.4161 113.442 25.0467 113.442 24.6388C113.442 24.2445 113.52 23.8978 113.674 23.5987C113.828 23.2951 114.05 23.0435 114.34 22.8441C114.63 22.6402 114.979 22.4861 115.387 22.3819C115.795 22.2776 116.25 22.2255 116.753 22.2255H118.215Z" fill="white"/>
<path d="M125.87 25.2575V16.2431H127.134V26.6851H125.978L125.87 25.2575ZM120.92 23.0889V22.9461C120.92 22.3841 120.988 21.8743 121.124 21.4165C121.265 20.9542 121.462 20.5577 121.716 20.2268C121.974 19.896 122.28 19.6422 122.634 19.4654C122.992 19.2842 123.39 19.1935 123.83 19.1935C124.292 19.1935 124.696 19.2751 125.04 19.4382C125.389 19.5969 125.684 19.8303 125.924 20.1385C126.169 20.4421 126.361 20.8092 126.502 21.2398C126.642 21.6703 126.74 22.1575 126.794 22.7014V23.3268C126.744 23.8661 126.647 24.3511 126.502 24.7816C126.361 25.2122 126.169 25.5793 125.924 25.8829C125.684 26.1866 125.389 26.42 125.04 26.5831C124.691 26.7417 124.283 26.8211 123.816 26.8211C123.386 26.8211 122.992 26.7281 122.634 26.5423C122.28 26.3565 121.974 26.0959 121.716 25.7605C121.462 25.4252 121.265 25.0309 121.124 24.5777C120.988 24.1199 120.92 23.6236 120.92 23.0889ZM122.185 22.9461V23.0889C122.185 23.456 122.221 23.8004 122.294 24.1222C122.371 24.444 122.489 24.7272 122.647 24.972C122.806 25.2167 123.008 25.4093 123.252 25.5498C123.497 25.6858 123.789 25.7537 124.129 25.7537C124.546 25.7537 124.888 25.6654 125.156 25.4886C125.428 25.3119 125.645 25.0785 125.808 24.7884C125.972 24.4983 126.098 24.1834 126.189 23.8435V22.2051C126.135 21.9558 126.055 21.7156 125.951 21.4845C125.851 21.2488 125.72 21.0403 125.557 20.8591C125.398 20.6732 125.201 20.526 124.965 20.4172C124.734 20.3084 124.46 20.254 124.143 20.254C123.798 20.254 123.502 20.3265 123.252 20.4716C123.008 20.6121 122.806 20.8069 122.647 21.0562C122.489 21.3009 122.371 21.5865 122.294 21.9128C122.221 22.2346 122.185 22.579 122.185 22.9461Z" fill="white"/>
<path d="M72.4903 44.0884H69.856V33.8572H66.4824V31.6648H75.8639V33.8572H72.4903V44.0884Z" fill="white"/>
<path d="M82.7005 34.4095C82.8308 34.4095 82.9809 34.418 83.1509 34.435C83.3265 34.4463 83.4681 34.4633 83.5757 34.486L83.3803 36.9163C83.2953 36.888 83.1735 36.8682 83.0149 36.8569C82.8619 36.8399 82.7288 36.8314 82.6155 36.8314C82.2813 36.8314 81.9555 36.8738 81.6383 36.9588C81.3267 37.0438 81.0463 37.1826 80.797 37.3752C80.5477 37.5622 80.3494 37.8114 80.2022 38.123C80.0605 38.4289 79.9897 38.8057 79.9897 39.2532V44.0884H77.3979V34.588H79.3609L79.7433 36.1855H79.8707C80.0577 35.8626 80.29 35.568 80.5676 35.3018C80.8508 35.0298 81.1709 34.8146 81.5278 34.6559C81.8904 34.4917 82.2813 34.4095 82.7005 34.4095Z" fill="white"/>
<path d="M93.8454 34.588V44.0884H91.8569L91.5085 42.8732H91.3726C91.1686 43.1961 90.9137 43.4596 90.6078 43.6635C90.3019 43.8675 89.9648 44.0176 89.5965 44.1139C89.2283 44.2102 88.8459 44.2584 88.4494 44.2584C87.7695 44.2584 87.1775 44.1394 86.6733 43.9015C86.1691 43.6579 85.7754 43.2811 85.4921 42.7713C85.2146 42.2614 85.0758 41.5986 85.0758 40.7828V34.588H87.6676V40.137C87.6676 40.8168 87.7894 41.3295 88.033 41.6751C88.2766 42.0206 88.6646 42.1934 89.1971 42.1934C89.724 42.1934 90.1376 42.0744 90.4378 41.8365C90.7381 41.5929 90.9477 41.2388 91.0666 40.7743C91.1913 40.3041 91.2536 39.7319 91.2536 39.0578V34.588H93.8454Z" fill="white"/>
<path d="M100.308 34.4095C101.186 34.4095 101.942 34.5795 102.577 34.9194C103.211 35.2536 103.701 35.7408 104.047 36.381C104.393 37.0211 104.565 37.8029 104.565 38.7264V39.984H98.4386C98.4669 40.7148 98.685 41.2898 99.0929 41.709C99.5065 42.1226 100.079 42.3294 100.809 42.3294C101.416 42.3294 101.971 42.2671 102.475 42.1424C102.979 42.0178 103.498 41.8308 104.03 41.5816V43.587C103.56 43.8193 103.067 43.9893 102.551 44.0969C102.042 44.2045 101.421 44.2584 100.69 44.2584C99.7387 44.2584 98.8946 44.0827 98.1582 43.7315C97.4274 43.3803 96.8523 42.8449 96.4331 42.1254C96.0196 41.406 95.8128 40.4995 95.8128 39.4062C95.8128 38.2958 95.9997 37.3724 96.3736 36.6359C96.7532 35.8938 97.2801 35.3386 97.9542 34.9704C98.6284 34.5965 99.413 34.4095 100.308 34.4095ZM100.325 36.2535C99.8209 36.2535 99.4017 36.415 99.0674 36.7379C98.7388 37.0608 98.5491 37.5678 98.4981 38.259H102.135C102.129 37.8737 102.059 37.531 101.923 37.2308C101.792 36.9305 101.594 36.6926 101.328 36.5169C101.067 36.3413 100.733 36.2535 100.325 36.2535Z" fill="white"/>
<path d="M110.357 44.2584C109.416 44.2584 108.615 44.0884 107.952 43.7485C107.289 43.4029 106.785 42.8704 106.439 42.1509C106.094 41.4315 105.921 40.5109 105.921 39.3892C105.921 38.2278 106.116 37.2817 106.507 36.5509C106.904 35.8145 107.451 35.2734 108.147 34.9279C108.85 34.5823 109.663 34.4095 110.586 34.4095C111.243 34.4095 111.81 34.4747 112.286 34.605C112.767 34.7296 113.187 34.8797 113.543 35.0553L112.779 37.0608C112.371 36.8965 111.991 36.7634 111.64 36.6614C111.289 36.5538 110.937 36.4999 110.586 36.4999C110.133 36.4999 109.756 36.6076 109.456 36.8229C109.156 37.0325 108.932 37.3497 108.785 37.7746C108.637 38.1995 108.564 38.732 108.564 39.3722C108.564 40.001 108.643 40.5222 108.802 40.9358C108.96 41.3493 109.19 41.6581 109.49 41.862C109.79 42.0603 110.156 42.1594 110.586 42.1594C111.124 42.1594 111.603 42.0886 112.022 41.947C112.442 41.7997 112.849 41.5957 113.246 41.3351V43.5531C112.849 43.8023 112.433 43.9808 111.997 44.0884C111.566 44.2017 111.02 44.2584 110.357 44.2584Z" fill="white"/>
<path d="M119.173 34.3925C120.448 34.3925 121.425 34.6701 122.105 35.2253C122.785 35.7805 123.125 36.6246 123.125 37.7576V44.0884H121.315L120.813 42.7968H120.745C120.473 43.1367 120.196 43.4143 119.913 43.6295C119.629 43.8448 119.304 44.0034 118.935 44.1054C118.567 44.2074 118.12 44.2584 117.593 44.2584C117.032 44.2584 116.528 44.1507 116.08 43.9354C115.638 43.7202 115.29 43.3916 115.035 42.9497C114.78 42.5022 114.653 41.9357 114.653 41.2502C114.653 40.2418 115.007 39.4996 115.715 39.0238C116.423 38.5422 117.485 38.276 118.901 38.225L120.55 38.174V37.7576C120.55 37.2591 120.42 36.8937 120.159 36.6614C119.898 36.4291 119.536 36.313 119.071 36.313C118.612 36.313 118.162 36.3781 117.72 36.5084C117.278 36.6387 116.836 36.803 116.395 37.0013L115.536 35.2508C116.041 34.9845 116.604 34.7749 117.227 34.622C117.856 34.469 118.505 34.3925 119.173 34.3925ZM120.55 39.6866L119.547 39.7206C118.709 39.7432 118.125 39.8934 117.797 40.171C117.474 40.4486 117.312 40.814 117.312 41.2672C117.312 41.6637 117.428 41.947 117.661 42.1169C117.893 42.2812 118.196 42.3634 118.57 42.3634C119.125 42.3634 119.593 42.1991 119.972 41.8705C120.357 41.5419 120.55 41.0746 120.55 40.4684V39.6866Z" fill="white"/>
<path d="M128.219 44.0884H125.628V30.866H128.219V44.0884Z" fill="white"/>
<path d="M133.365 44.0884H130.773V30.866H133.365V44.0884Z" fill="white"/>
<path d="M139.836 34.4095C140.714 34.4095 141.47 34.5795 142.105 34.9194C142.739 35.2536 143.229 35.7408 143.575 36.381C143.921 37.0211 144.093 37.8029 144.093 38.7264V39.984H137.967C137.995 40.7148 138.213 41.2898 138.621 41.709C139.034 42.1226 139.607 42.3294 140.337 42.3294C140.944 42.3294 141.499 42.2671 142.003 42.1424C142.507 42.0178 143.026 41.8308 143.558 41.5816V43.587C143.088 43.8193 142.595 43.9893 142.079 44.0969C141.57 44.2045 140.949 44.2584 140.218 44.2584C139.267 44.2584 138.423 44.0827 137.686 43.7315C136.955 43.3803 136.38 42.8449 135.961 42.1254C135.548 41.406 135.341 40.4995 135.341 39.4062C135.341 38.2958 135.528 37.3724 135.902 36.6359C136.281 35.8938 136.808 35.3386 137.482 34.9704C138.156 34.5965 138.941 34.4095 139.836 34.4095ZM139.853 36.2535C139.349 36.2535 138.93 36.415 138.595 36.7379C138.267 37.0608 138.077 37.5678 138.026 38.259H141.663C141.657 37.8737 141.587 37.531 141.451 37.2308C141.32 36.9305 141.122 36.6926 140.856 36.5169C140.595 36.3413 140.261 36.2535 139.853 36.2535Z" fill="white"/>
<path d="M151.329 34.4095C151.46 34.4095 151.61 34.418 151.78 34.435C151.955 34.4463 152.097 34.4633 152.205 34.486L152.009 36.9163C151.924 36.888 151.802 36.8682 151.644 36.8569C151.491 36.8399 151.358 36.8314 151.244 36.8314C150.91 36.8314 150.584 36.8738 150.267 36.9588C149.956 37.0438 149.675 37.1826 149.426 37.3752C149.177 37.5622 148.978 37.8114 148.831 38.123C148.689 38.4289 148.619 38.8057 148.619 39.2532V44.0884H146.027V34.588H147.99L148.372 36.1855H148.5C148.687 35.8626 148.919 35.568 149.196 35.3018C149.48 35.0298 149.8 34.8146 150.157 34.6559C150.519 34.4917 150.91 34.4095 151.329 34.4095Z" fill="white"/>
<path d="M165.912 44.0884L165.011 41.1312H160.482L159.581 44.0884H156.743L161.128 31.6138H164.348L168.75 44.0884H165.912ZM164.382 38.9218L163.481 36.0326C163.425 35.84 163.348 35.5935 163.252 35.2933C163.161 34.9874 163.068 34.6786 162.972 34.367C162.881 34.0498 162.807 33.775 162.751 33.5427C162.694 33.775 162.615 34.0639 162.513 34.4095C162.416 34.7494 162.323 35.0723 162.232 35.3783C162.142 35.6842 162.076 35.9023 162.037 36.0326L161.145 38.9218H164.382Z" fill="white"/>
<path d="M174.116 31.6648C175.72 31.6648 176.89 32.0103 177.626 32.7015C178.363 33.387 178.731 34.333 178.731 35.5397C178.731 36.0836 178.649 36.6048 178.484 37.1033C178.32 37.5962 178.051 38.0352 177.677 38.4204C177.309 38.8057 176.816 39.1116 176.198 39.3382C175.581 39.5591 174.819 39.6696 173.913 39.6696H172.782V44.0884H170.148V31.6648H174.116ZM173.981 33.8232H172.782V37.5112H173.649C174.142 37.5112 174.57 37.446 174.932 37.3157C175.295 37.1854 175.575 36.9815 175.774 36.7039C175.972 36.4263 176.071 36.0694 176.071 35.6332C176.071 35.0213 175.901 34.5681 175.561 34.2735C175.221 33.9733 174.694 33.8232 173.981 33.8232Z" fill="white"/>
<path d="M190.895 44.0884H187.904L184.65 38.8538L183.536 39.6526V44.0884H180.902V31.6648H183.536V37.3497C183.712 37.1061 183.885 36.8625 184.055 36.6189C184.225 36.3753 184.397 36.1317 184.573 35.8881L187.938 31.6648H190.861L186.528 37.1628L190.895 44.0884Z" fill="white"/>
<mask id="mask0_427_5021" style="mask-type:alpha" maskUnits="userSpaceOnUse" x="11" y="9" width="44" height="44">
<path d="M11.6016 9.28174H54.5297V52.2099H11.6016V9.28174Z" fill="white"/>
</mask>
<g mask="url(#mask0_427_5021)">
<path d="M33.0661 50.4214C43.9325 50.4214 52.7415 41.6124 52.7415 30.7459C52.7415 19.8795 43.9325 11.0705 33.0661 11.0705C22.1996 11.0705 13.3906 19.8795 13.3906 30.7459C13.3906 41.6124 22.1996 50.4214 33.0661 50.4214Z" fill="black"/>
<path d="M33.0661 50.4214C43.9325 50.4214 52.7415 41.6124 52.7415 30.7459C52.7415 19.8795 43.9325 11.0705 33.0661 11.0705C22.1996 11.0705 13.3906 19.8795 13.3906 30.7459C13.3906 41.6124 22.1996 50.4214 33.0661 50.4214Z" fill="white"/>
<path d="M27.2402 30.4508C26.9308 29.9163 26.6496 29.3756 26.3965 28.8315C26.5779 28.5143 27.2885 27.2843 28.4587 25.4048C29.8272 23.2064 27.5641 21.0758 26.4298 19.1164C25.4371 17.4017 23.5522 18.6891 23.5522 18.6891C23.5522 18.6891 22.8194 19.0002 21.5894 19.9855C20.3596 20.9708 20.5565 22.7393 20.5565 22.7393C20.7139 25.8991 21.9976 29.2753 23.8187 32.421C24.7755 34.0737 25.8929 35.5573 27.1235 36.8529L29.9075 34.0692C30.966 35.0562 32.1774 35.9591 33.5243 36.7385C34.0589 37.0478 34.5997 37.329 35.144 37.5821C35.4613 37.4007 36.6913 36.6901 38.5713 35.5203C40.77 34.1518 42.9011 36.4146 44.8609 37.5486C46.5758 38.541 45.2882 40.4257 45.2882 40.4257C45.2882 40.4257 44.9771 41.1583 43.9916 42.388C43.0062 43.6177 41.2373 43.4208 41.2373 43.4208C38.0221 43.0889 34.7002 41.98 31.5539 40.1594C29.9008 39.2028 28.4169 38.0856 27.121 36.8553L29.91 34.0669C28.9229 33.0086 28.0199 31.7975 27.2402 30.4508Z" fill="url(#paint0_linear_427_5021)"/>
</g>
</g>
<defs>
<linearGradient id="paint0_linear_427_5021" x1="33.1486" y1="18.2252" x2="33.1486" y2="43.4324" gradientUnits="userSpaceOnUse">
<stop stop-color="#127FFF"/>
<stop offset="1" stop-color="#71B2FF"/>
</linearGradient>
<clipPath id="clip0_427_5021">
<rect width="210" height="62.6519" fill="white"/>
</clipPath>
</defs>
</svg>
