<?xml version="1.0" encoding="UTF-8"?>
<svg width="442px" height="442px" viewBox="0 0 442 442" version="1.1" xmlns="http://www.w3.org/2000/svg" xmlns:xlink="http://www.w3.org/1999/xlink">
    <title>1_trusted_caller_id_app</title>
    <defs>
        <ellipse id="path-1" cx="180.680029" cy="180" rx="179.832258" ry="180"></ellipse>
        <ellipse id="path-3" cx="31.1348315" cy="31.0921053" rx="31.1348315" ry="31.0921053"></ellipse>
    </defs>
    <g id="1_trusted_caller_id_app" stroke="none" stroke-width="1" fill="none" fill-rule="evenodd">
        <g id="Group-3" transform="translate(41.000000, 41.000000)">
            <g id="Group-2">
                <mask id="mask-2" fill="white">
                    <use xlink:href="#path-1"></use>
                </mask>
                <use id="Mask" fill="#E5F3FF" xlink:href="#path-1"></use>
                <g id="Group-11" opacity="0.4" mask="url(#mask-2)">
                    <g transform="translate(172.162905, 322.549451) scale(-1, 1) translate(-172.162905, -322.549451) translate(65.662905, 250.549451)" id="Group">
                        <ellipse id="Oval" fill="#FFFFFF" cx="176.253208" cy="94.2977023" rx="35.979337" ry="35.988012"></ellipse>
                        <ellipse id="Oval" fill="#FFFFFF" cx="113.403227" cy="93.3866134" rx="50.5532457" ry="50.5654346"></ellipse>
                        <ellipse id="Oval" fill="#FFFFFF" cx="50.5532457" cy="50.5654346" rx="50.5532457" ry="50.5654346"></ellipse>
                    </g>
                </g>
                <g id="Group-11" opacity="0.4" mask="url(#mask-2)">
                    <g transform="translate(396.173724, 82.888112) scale(-1, 1) translate(-396.173724, -82.888112) translate(345.173724, 31.888112)" id="Group" opacity="0.75">
                        <g>
                            <ellipse id="Oval" fill="#FFFFFF" cx="50.5532457" cy="50.5654346" rx="50.5532457" ry="50.5654346"></ellipse>
                        </g>
                    </g>
                </g>
                <g id="Group-11" opacity="0.4" mask="url(#mask-2)">
                    <g transform="translate(-66.315269, 110.220779) scale(-1, 1) translate(66.315269, -110.220779) translate(-117.815269, 59.220779)" id="Group" opacity="0.75">
                        <g transform="translate(51.749969, 51.000000) scale(-1, 1) translate(-51.749969, -51.000000) translate(0.749969, 0.000000)">
                            <ellipse id="Oval" fill="#FFFFFF" cx="50.5532457" cy="50.5654346" rx="50.5532457" ry="50.5654346"></ellipse>
                        </g>
                    </g>
                </g>
                <g mask="url(#mask-2)" fill="#FFFFFF" id="Combined-Shape">
                    <g transform="translate(-22.771732, 104.775225)">
                        <path d="M23.6195032,91.1088911 L23.619663,90.9837609 C22.8719384,91.0664436 22.11209,91.1088911 21.3423299,91.1088911 C10.0234975,91.1088911 0.847770851,81.9309521 0.847770851,70.6093906 C0.847770851,59.2878291 10.0234975,50.1098901 21.3423299,50.1098901 C29.5320653,50.1098901 36.5998337,54.9147602 39.8817105,61.8599334 C42.4003461,60.1921118 45.4209713,59.2207792 48.6684087,59.2207792 C56.0458169,59.2207792 62.2526684,64.2337365 64.0700246,71.0399363 C66.0550214,69.3509915 68.628572,68.3316683 71.440141,68.3316683 C77.7283812,68.3316683 82.8260071,73.4305233 82.8260071,79.7202797 C82.8260071,85.2301344 78.9141715,89.8261106 73.716917,90.8811583 L73.7173142,91.1088911 L23.6195032,91.1088911 Z" fill-opacity="0.7"></path>
                        <path d="M278.662905,45.5544456 L278.663869,45.0986227 C277.192016,45.3975319 275.668607,45.5544456 274.108559,45.5544456 C261.532078,45.5544456 251.336826,35.3567356 251.336826,22.7772228 C251.336826,10.19771 261.532078,0 274.108559,0 C283.199389,0 291.04602,5.32833495 294.697188,13.0330298 C297.801161,10.5769373 301.723906,9.11088911 305.988984,9.11088911 C313.331883,9.11088911 319.660105,13.4562875 322.543572,19.7164208 C324.407965,18.7606087 326.52143,18.2217782 328.760716,18.2217782 C336.306604,18.2217782 342.423755,24.3404042 342.423755,31.8881119 C342.423755,37.8382963 338.622037,42.9003278 333.315659,44.7765942 L333.315062,45.5544456 L278.662905,45.5544456 Z" fill-opacity="0.8"></path>
                    </g>
                </g>
                <g id="Group" mask="url(#mask-2)">
                    <g transform="translate(66.000000, 130.000000)">
                        <g id="Clipped" stroke-width="1" fill="none" fill-rule="evenodd" transform="translate(56.000000, 0.000000)">
                            <g id="Group">
                                <path d="M3.87704918,117.917659 C47.1188361,183.832114 119.960836,216.788636 222.402344,216.788636 L257.648246,216.788636 C257.648246,208.113568 257.648246,173.037773 257.648246,111.56125 L194.534115,96.7805909 L147.886869,68.4599773 L92.2589672,0.443159091 L0.207245902,4.03915909 L46.1721311,92.8203409 L3.87704918,117.917659 Z" id="Path" fill="#DDAD88" fill-rule="nonzero"></path>
                                <path d="M172.410262,82.2528636 C159.682967,104.918091 153.319672,129.590568 153.319672,156.269591 C153.319672,182.948614 156.149918,201.240023 161.809705,211.142409 L80.3395082,200.531955 L91.0859836,93.9546591 L125.533213,58.4173864 L172.410262,82.2528636 Z" id="Path" fill="#CC9266"></path>
                            </g>
                        </g>
                        <path d="M24.4240227,28.2016272 L17.9603118,26.4854073 C10.3505178,24.4641126 2.52869488,28.9399361 0.489413792,36.4825276 C-1.54916288,44.0244226 2.96684094,51.7766659 10.5759305,53.7979607 L17.0403459,55.5148771 C24.6494355,57.5354753 32.4712584,53.0596518 34.5105395,45.5177568 C36.5491162,37.9751653 32.0338167,30.2229219 24.4240227,28.2016272 Z" id="Path" fill="#CC9266" fill-rule="nonzero"></path>
                        <path d="M228.72125,122.792964 C215.573516,86.2138469 209,56.7373202 209,34.3640886 C209,11.990857 213.843828,1.58696281 223.531484,3.15381435 C230.450938,3.15381435 233.911016,8.35576147 233.911016,18.7589515 C233.911016,34.3640886 256.990391,107.741331 299,108.882139 L233.956016,123 L228.72125,122.792964 Z" id="Path" fill="#DDAD88" fill-rule="evenodd"></path>
                        <polygon id="Path" fill="#0087FF" fill-rule="nonzero" points="438 95 306 95 306 217 438 217"></polygon>
                    </g>
                </g>
                <g id="Group" mask="url(#mask-2)">
                    <g transform="translate(83.000000, 66.000000)">
                        <rect id="Rectangle" fill="#0087FF" x="0" y="6" width="189" height="316" rx="37"></rect>
                        <g id="Group-4" stroke-width="1" fill="none" transform="translate(16.000000, 75.000000)">
                            <rect id="Rectangle" fill="#0087FF" x="0" y="59.775353" width="163" height="79.224647" rx="4"></rect>
                            <g id="Group-5" transform="translate(50.365169, 0.000000)">
                                <mask id="mask-4" fill="white">
                                    <use xlink:href="#path-3"></use>
                                </mask>
                                <use id="Oval" fill="#FFF3D5" xlink:href="#path-3"></use>
                                <ellipse id="Oval" fill="#FBC841" mask="url(#mask-4)" cx="31.1348315" cy="23.7763158" rx="12.8202247" ry="12.8026316"></ellipse>
                                <ellipse id="Oval" fill="#FBC841" mask="url(#mask-4)" cx="31.1348315" cy="53.9539474" rx="21.0617978" ry="21.0328947"></ellipse>
                            </g>
                            <rect id="Rectangle" fill="#80C3FF" x="34.5430464" y="77.1949615" width="91.7549669" height="8.5648267" rx="4"></rect>
                            <rect id="Rectangle" fill="#80C3FF" x="48.5761589" y="94.3246149" width="63.6887417" height="8.5648267" rx="4"></rect>
                        </g>
                        <path d="M164,0 C180.568542,5.09121799e-16 194,13.4314575 194,30 L194,305 C194,321.568542 180.568542,335 164,335 L30,335 C13.4314575,335 5.58177493e-15,321.568542 0,305 L0,30 C1.52365243e-15,13.4314575 13.4314575,6.59630556e-15 30,0 L164,0 Z M161.209945,11.7731629 L32.7900552,11.7731629 C21.1920755,11.7731629 11.7900552,21.1751832 11.7900552,32.7731629 L11.7900552,32.7731629 L11.7900552,303.297125 C11.7900552,314.895104 21.1920755,324.297125 32.7900552,324.297125 L32.7900552,324.297125 L161.209945,324.297125 C172.807924,324.297125 182.209945,314.895104 182.209945,303.297125 L182.209945,303.297125 L182.209945,32.7731629 C182.209945,21.1751832 172.807924,11.7731629 161.209945,11.7731629 L161.209945,11.7731629 Z" id="Combined-Shape" fill="#0062BA"></path>
                        <rect id="Rectangle" fill="#0062BA" x="64" y="0" width="66" height="26" rx="8"></rect>
                    </g>
                </g>
                <path d="M66.4894138,245.482243 C68.5286949,237.940348 76.3505178,233.464525 83.9603118,235.485123 L83.9603118,235.485123 L90.4240227,237.202039 C98.0338167,239.222638 102.549116,246.975577 100.510539,254.517472 C99.4415395,258.471332 96.7835537,261.582473 93.4001787,263.356768 C99.1591146,266.366749 102.266695,273.020421 100.510539,279.517472 C98.4712584,287.060064 90.6494355,291.535887 83.0403459,289.514593 L83.0403459,289.514593 L76.5759305,287.798373 C68.9668409,285.777078 64.4508371,278.024835 66.4894138,270.482243 C67.5585188,266.528361 70.2169219,263.41717 73.6008732,261.642946 C67.8413614,258.633133 64.7332585,251.979895 66.4894138,245.482243 Z M86.825,199 C94.6538,199 101,205.491908 101,213.499643 C101,221.508092 94.6538,228 86.825,228 L86.825,228 L80.175,228 C72.3469,228 66,221.508092 66,213.499643 C66,205.491908 72.3469,199 80.175,199 L80.175,199 Z" id="Combined-Shape" fill="#CC9266" fill-rule="nonzero" mask="url(#mask-2)"></path>
            </g>
            <polygon id="Star" fill="#B3DBFF" transform="translate(344.653052, 141.145354) rotate(-15.000000) translate(-344.653052, -141.145354) " points="344.657815 151.886792 334.043506 157.458257 336.067153 145.651035 327.475796 137.285845 339.344426 135.566967 344.648984 124.82553 349.960554 135.570428 361.830307 137.297044 353.244409 145.656634 355.275762 157.465178"></polygon>
            <polygon id="Star" fill="#B3DBFF" transform="translate(59.420984, 130.207292) rotate(-15.000000) translate(-59.420984, -130.207292) " points="59.4257473 140.94873 48.8114389 146.520195 50.8350855 134.712973 42.2437288 126.347784 54.1123583 124.628905 59.4169163 113.887468 64.728486 124.632366 76.5982398 126.358982 68.012341 134.718572 70.0436943 146.527116"></polygon>
            <polygon id="Star" fill="#B3DBFF" transform="translate(59.421374, 43.653063) rotate(-15.000000) translate(-59.421374, -43.653063) " points="59.4272861 58.6411255 45.3724058 66.4150561 48.0522975 49.9397474 36.6764464 38.2670377 52.3921072 35.8689002 59.4163249 20.8808383 66.4492457 35.8740165 82.1663021 38.2835945 70.7972254 49.9480257 73.4866827 66.4252887"></polygon>
            <polygon id="Star" fill="#B3DBFF" transform="translate(119.454360, 43.876709) rotate(-15.000000) translate(-119.454360, -43.876709) " points="119.456725 49.8719342 113.834773 52.9815064 114.90673 46.3913829 110.356389 41.7222991 116.642654 40.7630441 119.452341 34.7678193 122.265509 40.7650906 128.552331 41.7289217 124.004701 46.3946943 125.080484 52.9855995"></polygon>
            <polygon id="Star" fill="#B3DBFF" transform="translate(343.873788, 201.037716) rotate(-15.000000) translate(-343.873788, -201.037716) " points="343.876152 207.032941 338.2542 210.142513 339.326157 203.552389 334.775817 198.883306 341.062081 197.924051 343.871768 191.928826 346.684936 197.926097 352.971759 198.889928 348.424128 203.555701 349.499911 210.146606"></polygon>
            <polygon id="Star" fill="#B3DBFF" transform="translate(312.823155, 57.601153) rotate(-15.000000) translate(-312.823155, -57.601153) " points="312.82552 63.5963773 307.203567 66.7059496 308.275524 60.1158261 303.725184 55.4467422 310.011448 54.4874872 312.821135 48.4922624 315.634303 54.4895337 321.921126 55.4533649 317.373495 60.1191374 318.449278 66.7100426"></polygon>
            <polygon id="Star" fill="#B3DBFF" transform="translate(37.840032, 261.817936) rotate(-15.000000) translate(-37.840032, -261.817936) " points="37.8423972 267.813161 32.2204451 270.922733 33.2924018 264.332609 28.7420613 259.663525 35.0283256 258.70427 37.8380127 252.709046 40.651181 258.706317 46.9380036 259.670148 42.3903729 264.335921 43.4661558 270.926826"></polygon>
            <polygon id="Star" fill="#B3DBFF" transform="translate(170.194463, 13.065688) rotate(-15.000000) translate(-170.194463, -13.065688) " points="170.196828 19.0609128 164.574875 22.170485 165.646832 15.5803615 161.096492 10.9112777 167.382756 9.95202266 170.192443 3.95679787 173.005611 9.95406918 179.292434 10.9179003 174.744803 15.5836729 175.820586 22.1745781"></polygon>
        </g>
    </g>
</svg>