<?xml version="1.0" encoding="UTF-8"?>
<svg width="442px" height="442px" viewBox="0 0 442 442" version="1.1" xmlns="http://www.w3.org/2000/svg" xmlns:xlink="http://www.w3.org/1999/xlink">
    <title>safe_and_efficient_communication</title>
    <defs>
        <ellipse id="path-1" cx="180.680029" cy="180" rx="179.832258" ry="180"></ellipse>
        <ellipse id="path-3" cx="80.2781757" cy="80.2657361" rx="80.2781757" ry="80.2657361"></ellipse>
        <ellipse id="path-5" cx="58.6030683" cy="58.5939873" rx="58.6030683" ry="58.5939873"></ellipse>
    </defs>
    <g id="safe_and_efficient_communication" stroke="none" stroke-width="1" fill="none" fill-rule="evenodd">
        <g id="Group-3" transform="translate(41.000000, 41.000000)">
            <g id="Group-2">
                <mask id="mask-2" fill="white">
                    <use xlink:href="#path-1"></use>
                </mask>
                <use id="Mask" fill="#E5F3FF" xlink:href="#path-1"></use>
                <g id="Group-11" opacity="0.4" mask="url(#mask-2)">
                    <g transform="translate(172.162905, 322.549451) scale(-1, 1) translate(-172.162905, -322.549451) translate(65.662905, 250.549451)" id="Group">
                        <ellipse id="Oval" fill="#FFFFFF" cx="176.253208" cy="94.2977023" rx="35.979337" ry="35.988012"></ellipse>
                        <ellipse id="Oval" fill="#FFFFFF" cx="113.403227" cy="93.3866134" rx="50.5532457" ry="50.5654346"></ellipse>
                        <ellipse id="Oval" fill="#FFFFFF" cx="50.5532457" cy="50.5654346" rx="50.5532457" ry="50.5654346"></ellipse>
                    </g>
                </g>
                <g id="Group-11" opacity="0.4" mask="url(#mask-2)">
                    <g transform="translate(396.173724, 82.888112) scale(-1, 1) translate(-396.173724, -82.888112) translate(345.173724, 31.888112)" id="Group" opacity="0.75">
                        <g>
                            <ellipse id="Oval" fill="#FFFFFF" cx="50.5532457" cy="50.5654346" rx="50.5532457" ry="50.5654346"></ellipse>
                        </g>
                    </g>
                </g>
                <g id="Group-11" opacity="0.4" mask="url(#mask-2)">
                    <g transform="translate(-66.315269, 110.220779) scale(-1, 1) translate(66.315269, -110.220779) translate(-117.815269, 59.220779)" id="Group" opacity="0.75">
                        <g transform="translate(51.749969, 51.000000) scale(-1, 1) translate(-51.749969, -51.000000) translate(0.749969, 0.000000)">
                            <ellipse id="Oval" fill="#FFFFFF" cx="50.5532457" cy="50.5654346" rx="50.5532457" ry="50.5654346"></ellipse>
                        </g>
                    </g>
                </g>
                <g mask="url(#mask-2)" fill="#FFFFFF" id="Combined-Shape">
                    <g transform="translate(-22.771732, 104.775225)">
                        <path d="M23.6195032,91.1088911 L23.619663,90.9837609 C22.8719384,91.0664436 22.11209,91.1088911 21.3423299,91.1088911 C10.0234975,91.1088911 0.847770851,81.9309521 0.847770851,70.6093906 C0.847770851,59.2878291 10.0234975,50.1098901 21.3423299,50.1098901 C29.5320653,50.1098901 36.5998337,54.9147602 39.8817105,61.8599334 C42.4003461,60.1921118 45.4209713,59.2207792 48.6684087,59.2207792 C56.0458169,59.2207792 62.2526684,64.2337365 64.0700246,71.0399363 C66.0550214,69.3509915 68.628572,68.3316683 71.440141,68.3316683 C77.7283812,68.3316683 82.8260071,73.4305233 82.8260071,79.7202797 C82.8260071,85.2301344 78.9141715,89.8261106 73.716917,90.8811583 L73.7173142,91.1088911 L23.6195032,91.1088911 Z" fill-opacity="0.7"></path>
                        <path d="M278.662905,45.5544456 L278.663869,45.0986227 C277.192016,45.3975319 275.668607,45.5544456 274.108559,45.5544456 C261.532078,45.5544456 251.336826,35.3567356 251.336826,22.7772228 C251.336826,10.19771 261.532078,0 274.108559,0 C283.199389,0 291.04602,5.32833495 294.697188,13.0330298 C297.801161,10.5769373 301.723906,9.11088911 305.988984,9.11088911 C313.331883,9.11088911 319.660105,13.4562875 322.543572,19.7164208 C324.407965,18.7606087 326.52143,18.2217782 328.760716,18.2217782 C336.306604,18.2217782 342.423755,24.3404042 342.423755,31.8881119 C342.423755,37.8382963 338.622037,42.9003278 333.315659,44.7765942 L333.315062,45.5544456 L278.662905,45.5544456 Z" fill-opacity="0.8"></path>
                    </g>
                </g>
                <g mask="url(#mask-2)">
                    <g transform="translate(-52.303908, -41.881230)">
                        <g id="Group-2" transform="translate(0.303908, 251.881230)">
                            <path d="M114.505536,1.38207973 L138.511471,1.3223793 C139.063754,1.32100582 139.512581,1.76760627 139.513955,2.31988931 C139.513959,2.32154486 139.513959,2.32320043 139.513955,2.32485598 L139.301216,88.1144031 C139.299851,88.6647476 138.85405,89.1105516 138.303706,89.1119203 L114.287837,89.1716454 L114.287837,89.1716454 L114.505536,1.38207973 Z" id="Rectangle" fill="#FFFFFF" transform="translate(126.902142, 45.245763) rotate(-30.000000) translate(-126.902142, -45.245763) "></path>
                            <path d="M19.8672681,25.5645668 L122.069445,25.3103999 C123.174012,25.307653 124.071666,26.2008539 124.074413,27.30542 C124.074421,27.3087311 124.074421,27.3120422 124.074413,27.3153533 L123.825167,127.826704 C123.822437,128.927393 122.930836,129.819001 121.830147,129.821738 L19.6081027,130.075955 L19.6081027,130.075955 L19.8672681,25.5645668 Z" id="Rectangle" fill="#0087FF" transform="translate(71.843750, 77.690678) rotate(-30.000000) translate(-71.843750, -77.690678) "></path>
                        </g>
                        <g id="Group-12" transform="translate(38.303908, 0.881230)">
                            <g id="Group-7" transform="translate(149.793733, 234.026641) rotate(-30.000000) translate(-149.793733, -234.026641) translate(77.793733, 172.026641)">
                                <path d="M63.4443084,16.3068718 L105.730074,13.3149552 C113.138265,12.7907909 119.568709,18.3713972 120.092874,25.7795881 C120.115223,26.0954558 120.126408,26.4120143 120.126408,26.7286716 C120.126408,34.8499432 113.829289,41.580137 105.725947,42.1195013 L0.496381532,49.123658 L0.496381532,49.123658 C16.02417,29.9335319 38.8203833,18.0491301 63.4443084,16.3068718 Z" id="Rectangle" fill="#B28362"></path>
                                <g id="Group-10" transform="translate(89.934380, 0.031384)">
                                    <g id="Group-9" transform="translate(0.000000, 0.000000)">
                                        <g id="Group-6" transform="translate(0.000000, 0.000000)">
                                            <circle id="Oval" transform="translate(26.920122, 27.729766) rotate(-45.000000) translate(-26.920122, -27.729766) " cx="26.9201218" cy="27.7297657" r="18.9263238"></circle>
                                        </g>
                                    </g>
                                </g>
                                <path d="M0.496381532,49.123658 L93.2096518,49.123658 L84.5608458,89.6005139 C80.3023368,109.530554 62.6944111,123.773613 42.3144844,123.773613 L0.496381532,123.773613 L0.496381532,123.773613 L0.496381532,49.123658 Z" id="Rectangle" fill="#C69674"></path>
                            </g>
                            <g id="Group-7" transform="translate(166.527939, 176.095881) rotate(-30.000000) translate(-166.527939, -176.095881) translate(51.027939, 72.095881)">
                                <path d="M63.4443084,100.122341 L105.730074,97.1304249 C113.138265,96.6062605 119.568709,102.186867 120.092874,109.595058 C120.115223,109.910925 120.126408,110.227484 120.126408,110.544141 C120.126408,118.665413 113.829289,125.395607 105.725947,125.934971 L0.496381532,132.939128 L0.496381532,132.939128 C16.02417,113.749002 38.8203833,101.8646 63.4443084,100.122341 Z" id="Rectangle" fill="#E9B9A9"></path>
                                <g id="Group" transform="translate(128.212814, -3.408017)">
                                    <g id="Group-2" transform="translate(27.134831, 79.191160) rotate(-315.000000) translate(-27.134831, -79.191160) ">
                                        <path d="M25.0475367,108.366851 C38.8809093,108.366851 50.0950735,119.563195 50.0950735,133.374586 C50.0950735,147.185976 38.8809093,158.38232 25.0475367,158.38232 C11.2141642,158.38232 0,147.185976 0,133.374586 C0,119.563195 11.2141642,108.366851 25.0475367,108.366851 Z M25.0475367,120.870718 C18.1308505,120.870718 12.5237684,126.46889 12.5237684,133.374586 C12.5237684,140.280281 18.1308505,145.878453 25.0475367,145.878453 C31.964223,145.878453 37.5713051,140.280281 37.5713051,133.374586 C37.5713051,126.46889 31.964223,120.870718 25.0475367,120.870718 Z" id="Combined-Shape" fill="#FAC030"></path>
                                        <rect id="Rectangle" fill="#F2AD00" x="29.2221262" y="8.3359116" width="25.0475367" height="8.3359116" rx="1"></rect>
                                        <rect id="Rectangle" fill="#F2AD00" x="29.2221262" y="33.3436464" width="25.0475367" height="8.3359116" rx="1"></rect>
                                        <rect id="Rectangle" fill="#F2AD00" x="29.2221262" y="20.839779" width="16.6983578" height="8.3359116" rx="1"></rect>
                                        <rect id="Rectangle" fill="#FAC030" x="20.8729473" y="0" width="8.34917891" height="104.198895" rx="1"></rect>
                                        <rect id="Rectangle" fill="#FAC030" x="16.6983578" y="95.8629834" width="16.6983578" height="20.839779" rx="1"></rect>
                                        <rect id="Rectangle" fill="#F2AD00" x="29.2221262" y="8.3359116" width="8.34917891" height="33.3436464"></rect>
                                    </g>
                                </g>
                                <g id="Group-10" transform="translate(49.363075, 11.991605)">
                                    <g id="Group-9" transform="translate(0.000000, 0.000000)"></g>
                                </g>
                                <path d="M0.496381532,132.939128 L93.2096518,132.939128 L83.0058192,180.693588 C79.6542149,196.379268 65.7961252,207.589082 49.7563681,207.589082 L0.496381532,207.589082 L0.496381532,207.589082 L0.496381532,132.939128 Z" id="Rectangle" fill="#F0CEC2"></path>
                            </g>
                            <g id="Group-8" transform="translate(156.417463, 150.847005) rotate(-30.000000) translate(-156.417463, -150.847005) translate(35.917463, 47.347005)">
                                <g id="Group-4" transform="translate(137.661261, 103.701229) rotate(-45.000000) translate(-137.661261, -103.701229) translate(57.907910, 37.511602)"></g>
                                <path d="M2.18387252,142.203759 L117.436543,138.942643 C125.185761,138.723376 131.645494,144.827607 131.864761,152.576824 C131.868452,152.70727 131.870324,152.83776 131.870376,152.968258 C131.873545,160.933524 125.41899,167.393217 117.453723,167.396386 C117.449901,167.396388 117.446078,167.396388 117.442255,167.396386 L3.28752956,167.351032 L3.28752956,167.351032 L2.18387252,142.203759 Z" id="Rectangle" fill="#F0CEC2" transform="translate(67.029995, 152.968258) rotate(-15.000000) translate(-67.029995, -152.968258) "></path>
                            </g>
                        </g>
                    </g>
                </g>
            </g>
            <polygon id="Star" fill="#B3DBFF" transform="translate(247.653052, 92.145354) rotate(-15.000000) translate(-247.653052, -92.145354) " points="247.657815 102.886792 237.043506 108.458257 239.067153 96.6510347 230.475796 88.2858455 242.344426 86.5669674 247.648984 75.8255303 252.960554 86.5704279 264.830307 88.2970439 256.244409 96.6566339 258.275762 108.465178"></polygon>
            <polygon id="Star" fill="#B3DBFF" transform="translate(48.400470, 146.387468) rotate(-15.000000) translate(-48.400470, -146.387468) " points="48.4041177 154.614761 40.2741982 158.882167 41.8241894 149.838547 35.2437288 143.431318 44.3343825 142.114761 48.3973536 133.887468 52.4656954 142.117411 61.5572102 143.439895 54.9809301 149.842836 56.5368241 158.887468"></polygon>
            <polygon id="Star" fill="#B3DBFF" transform="translate(59.421374, 43.653063) rotate(-15.000000) translate(-59.421374, -43.653063) " points="59.4272861 58.6411255 45.3724058 66.4150561 48.0522975 49.9397474 36.6764464 38.2670377 52.3921072 35.8689002 59.4163249 20.8808383 66.4492457 35.8740165 82.1663021 38.2835945 70.7972254 49.9480257 73.4866827 66.4252887"></polygon>
            <polygon id="Star" fill="#B3DBFF" transform="translate(109.454360, 61.876709) rotate(-15.000000) translate(-109.454360, -61.876709) " points="109.456725 67.8719342 103.834773 70.9815064 104.90673 64.3913829 100.356389 59.7222991 106.642654 58.7630441 109.452341 52.7678193 112.265509 58.7650906 118.552331 59.7289217 114.004701 64.3946943 115.080484 70.9855995"></polygon>
            <polygon id="Star" fill="#B3DBFF" transform="translate(303.873788, 201.037716) rotate(-15.000000) translate(-303.873788, -201.037716) " points="303.876152 207.032941 298.2542 210.142513 299.326157 203.552389 294.775817 198.883306 301.062081 197.924051 303.871768 191.928826 306.684936 197.926097 312.971759 198.889928 308.424128 203.555701 309.499911 210.146606"></polygon>
            <polygon id="Star" fill="#B3DBFF" transform="translate(312.823155, 57.601153) rotate(-15.000000) translate(-312.823155, -57.601153) " points="312.82552 63.5963773 307.203567 66.7059496 308.275524 60.1158261 303.725184 55.4467422 310.011448 54.4874872 312.821135 48.4922624 315.634303 54.4895337 321.921126 55.4533649 317.373495 60.1191374 318.449278 66.7100426"></polygon>
            <polygon id="Star" fill="#B3DBFF" transform="translate(147.840032, 329.817936) rotate(-15.000000) translate(-147.840032, -329.817936) " points="147.842397 335.813161 142.220445 338.922733 143.292402 332.332609 138.742061 327.663525 145.028326 326.70427 147.838013 320.709046 150.651181 326.706317 156.938004 327.670148 152.390373 332.335921 153.466156 338.926826"></polygon>
            <polygon id="Star" fill="#B3DBFF" transform="translate(170.194463, 13.065688) rotate(-15.000000) translate(-170.194463, -13.065688) " points="170.196828 19.0609128 164.574875 22.170485 165.646832 15.5803615 161.096492 10.9112777 167.382756 9.95202266 170.192443 3.95679787 173.005611 9.95406918 179.292434 10.9179003 174.744803 15.5836729 175.820586 22.1745781"></polygon>
            <g transform="translate(165.196092, 55.618770)">
                <path d="M126.67996,14.3752016 C152.173397,14.3752016 172.839911,35.0385133 172.839911,60.5279999 L172.839911,100.660868 C172.839911,126.150355 152.173397,146.813666 126.67996,146.813666 C111.578453,146.813666 98.1707145,139.562903 89.7491989,128.35332 L97.3784255,128.352547 L97.377897,107.592957 C100.509061,120.874875 112.439873,130.760519 126.67996,130.760519 C143.306114,130.760519 156.784275,117.284446 156.784275,100.660868 L156.784275,60.5279999 C156.784275,43.9044217 143.306114,30.4283489 126.67996,30.4283489 C110.053805,30.4283489 96.5756437,43.9044217 96.5756437,60.5279999 L96.5750086,80.9952016 L80.5200086,80.9952016 L80.5200086,60.5279999 C80.5200086,35.0385133 101.186523,14.3752016 126.67996,14.3752016 Z" id="Combined-Shape" fill="#FBC841" fill-rule="nonzero" transform="translate(126.679960, 80.594434) rotate(-690.000000) translate(-126.679960, -80.594434) "></path>
                <g id="Rectangle" transform="translate(99.259953, 166.954407) rotate(-345.000000) translate(-99.259953, -166.954407) translate(18.759953, 86.454407)">
                    <mask id="mask-4" fill="white">
                        <use xlink:href="#path-3"></use>
                    </mask>
                    <use id="Mask" fill="#FBC841" xlink:href="#path-3"></use>
                    <rect fill="#F2A91C" mask="url(#mask-4)" x="79.5781174" y="0" width="86.2096271" height="159.581773"></rect>
                </g>
                <g id="Rectangle" transform="translate(99.384590, 167.165621) rotate(-345.000000) translate(-99.384590, -167.165621) translate(40.384590, 108.165621)">
                    <mask id="mask-6" fill="white">
                        <use xlink:href="#path-5"></use>
                    </mask>
                    <use id="Mask" fill="#FFDB83" xlink:href="#path-5"></use>
                </g>
                <ellipse id="Oval" fill="#FFFFFF" transform="translate(99.106340, 166.670706) rotate(-345.000000) translate(-99.106340, -166.670706) " cx="99.1063398" cy="166.670706" rx="32.9199546" ry="32.9030809"></ellipse>
                <g id="Group" transform="translate(99.216065, 167.271759) rotate(-345.000000) translate(-99.216065, -167.271759) translate(87.716065, 152.271759)" fill="#002F59">
                    <ellipse id="Oval" cx="11.2389446" cy="11.2372031" rx="11.2389446" ry="11.2372031"></ellipse>
                    <path d="M6.42225406,20.066434 L16.0556351,20.066434 L16.0556351,24.8816318 C16.0556351,27.5418165 13.8991293,29.6983224 11.2389446,29.6983224 C8.57875987,29.6983224 6.42225406,27.5418165 6.42225406,24.8816318 L6.42225406,20.066434 L6.42225406,20.066434 Z" id="Rectangle"></path>
                </g>
            </g>
        </g>
    </g>
</svg>