<?xml version="1.0" encoding="UTF-8"?>
<svg width="442px" height="442px" viewBox="0 0 442 442" version="1.1" xmlns="http://www.w3.org/2000/svg" xmlns:xlink="http://www.w3.org/1999/xlink">
    <title>community_based_spam_reporting</title>
    <defs>
        <ellipse id="path-1" cx="179.521824" cy="179" rx="178.679487" ry="179"></ellipse>
        <ellipse id="path-3" cx="178.5" cy="179" rx="178.5" ry="179"></ellipse>
    </defs>
    <g id="community_based_spam_reporting" stroke="none" stroke-width="1" fill="none" fill-rule="evenodd">
        <g id="Group-4" transform="translate(41.000000, 42.000000)">
            <g id="Group-3">
                <g id="Group-2" transform="translate(0.687573, 0.000000)">
                    <mask id="mask-2" fill="white">
                        <use xlink:href="#path-1"></use>
                    </mask>
                    <use id="Mask" fill="#E5F3FF" xlink:href="#path-1"></use>
                    <g id="Group-11" opacity="0.7" mask="url(#mask-2)">
                        <g transform="translate(171.376604, 321.157509) scale(-1, 1) translate(-171.376604, -321.157509) translate(65.876604, 249.157509)" id="Group">
                            <ellipse id="Oval" fill="#FFFFFF" cx="175.12338" cy="93.7738262" rx="35.7487003" ry="35.7880786"></ellipse>
                            <ellipse id="Oval" fill="#FFFFFF" cx="112.676283" cy="92.8677989" rx="50.2291864" ry="50.2845155"></ellipse>
                            <ellipse id="Oval" fill="#FFFFFF" cx="50.2291864" cy="50.2845155" rx="50.2291864" ry="50.2845155"></ellipse>
                        </g>
                    </g>
                    <g id="Group-11" opacity="0.4" mask="url(#mask-2)">
                        <g transform="translate(393.807226, 82.210956) scale(-1, 1) translate(-393.807226, -82.210956) translate(343.307226, 31.710956)" id="Group" opacity="0.75">
                            <g>
                                <ellipse id="Oval" fill="#FFFFFF" cx="50.2291864" cy="50.2845155" rx="50.2291864" ry="50.2845155"></ellipse>
                            </g>
                        </g>
                    </g>
                    <g id="Group-11" opacity="0.4" mask="url(#mask-2)">
                        <g transform="translate(-66.733119, 109.391775) scale(-1, 1) translate(66.733119, -109.391775) translate(-117.733119, 58.891775)" id="Group" opacity="0.75">
                            <g transform="translate(50.578494, 50.500000) scale(-1, 1) translate(-50.578494, -50.500000) translate(0.078494, 0.000000)">
                                <ellipse id="Oval" fill="#FFFFFF" cx="50.2291864" cy="50.2845155" rx="50.2291864" ry="50.2845155"></ellipse>
                            </g>
                        </g>
                    </g>
                    <g mask="url(#mask-2)" fill="#FFFFFF" id="Combined-Shape">
                        <g transform="translate(-22.625760, 104.193140)">
                            <path d="M23.4680961,90.6027306 L23.4675769,90.4783706 C22.724864,90.5605445 21.9701132,90.6027306 21.2055201,90.6027306 C9.95924431,90.6027306 0.842336423,81.4757802 0.842336423,70.2171162 C0.842336423,58.9584523 9.95924431,49.8315018 21.2055201,49.8315018 C29.3429323,49.8315018 36.3655217,54.6098838 39.6262691,61.516713 C42.1283626,59.8577712 45.129711,58.8917749 48.3564317,58.8917749 C55.6865881,58.8917749 61.8536789,63.8769358 63.6593484,70.6453788 C65.6319238,68.9655766 68.1888267,67.952048 70.9821914,67.952048 C77.2301224,67.952048 82.2950712,73.022576 82.2950712,79.2773893 C82.2950712,84.7563489 78.4087154,89.3266016 73.2451779,90.3760993 L73.2447673,90.6027306 L23.4680961,90.6027306 Z" fill-opacity="0.7"></path>
                            <path d="M276.876604,45.3013653 L276.876373,44.8483167 C275.414323,45.145408 273.90108,45.3013653 272.351452,45.3013653 C259.85559,45.3013653 249.725693,35.1603093 249.725693,22.6506827 C249.725693,10.1410561 259.85559,0 272.351452,0 C281.384232,0 289.180726,5.29899531 292.808373,12.9611928 C295.89205,10.5182246 299.789709,9.06027306 304.027516,9.06027306 C311.323222,9.06027306 317.610789,13.381384 320.47584,19.606569 C322.327873,18.6565244 324.428051,18.1205461 326.653276,18.1205461 C334.150793,18.1205461 340.228731,24.2051798 340.228731,31.7109557 C340.228731,37.6282791 336.451134,42.6623253 331.178498,44.5280203 L331.178427,45.3013653 L276.876604,45.3013653 Z" fill-opacity="0.8"></path>
                        </g>
                    </g>
                </g>
                <polygon id="Star" fill="#B3DBFF" transform="translate(247.281296, 91.633529) rotate(-15.000000) translate(-247.281296, -91.633529) " points="247.286255 102.315255 236.730396 107.855629 238.742735 96.1139843 230.198491 87.7951031 242.001834 86.0859485 247.27706 75.404223 252.559588 86.0895518 264.364101 87.8067637 255.82554 96.1198146 257.845904 107.862835"></polygon>
                <polygon id="Star" fill="#B3DBFF" transform="translate(60.083471, 129.484012) rotate(-15.000000) translate(-60.083471, -129.484012) " points="60.0884301 140.165738 49.5325705 145.706112 51.5449097 133.964467 43.0006658 125.645586 54.8040082 123.936431 60.0792346 113.254706 65.3617622 123.940035 77.1662754 125.657247 68.6277145 133.970297 70.6480785 145.713318"></polygon>
                <polygon id="Star" fill="#B3DBFF" transform="translate(60.083843, 43.410671) rotate(-15.000000) translate(-60.083843, -43.410671) " points="60.0900329 58.3154204 46.1125533 66.0459798 48.7774579 49.6621741 37.4639799 38.0540915 53.09319 35.669507 60.0785556 20.764758 67.073034 35.6748095 82.7037055 38.0712506 71.3973207 49.6707537 74.0722413 66.0565847"></polygon>
                <polygon id="Star" fill="#B3DBFF" transform="translate(109.841953, 61.533000) rotate(-15.000000) translate(-109.841953, -61.533000) " points="109.844429 67.4948994 104.253437 70.5871232 105.319399 64.0336009 100.794008 59.3903679 107.045692 58.4365341 109.839838 52.4746345 112.63763 58.4386551 118.889898 59.3972315 114.367344 64.0370327 115.437313 70.5913652"></polygon>
                <polygon id="Star" fill="#B3DBFF" transform="translate(303.193142, 199.920890) rotate(-15.000000) translate(-303.193142, -199.920890) " points="303.195618 205.882789 297.604626 208.975013 298.670588 202.421491 294.145197 197.778258 300.396881 196.824424 303.191027 190.862524 305.988818 196.826545 312.241087 197.785121 307.718533 202.424923 308.788501 208.979255"></polygon>
                <polygon id="Star" fill="#B3DBFF" transform="translate(312.093337, 57.281196) rotate(-15.000000) translate(-312.093337, -57.281196) " points="312.095813 63.2430957 306.504821 66.3353194 307.570783 59.7817971 303.045392 55.1385641 309.297076 54.1847303 312.091222 48.2228307 314.889013 54.1868513 321.141282 55.1454277 316.618728 59.785229 317.688696 66.3395614"></polygon>
                <polygon id="Star" fill="#B3DBFF" transform="translate(119.902003, 192.052758) rotate(-15.000000) translate(-119.902003, -192.052758) " points="119.904479 198.014657 114.313487 201.106881 115.379449 194.553359 110.854058 189.910126 117.105742 188.956292 119.899888 182.994392 122.697679 188.958413 128.949948 189.91699 124.427394 194.556791 125.497362 201.111123"></polygon>
                <polygon id="Star" fill="#B3DBFF" transform="translate(183.818913, 100.257886) rotate(-15.000000) translate(-183.818913, -100.257886) " points="183.821389 106.219786 178.230397 109.312009 179.296359 102.758487 174.770968 98.1152541 181.022652 97.1614203 183.816798 91.1995207 186.614589 97.1635413 192.866858 98.1221177 188.344304 102.761919 189.414272 109.316251"></polygon>
                <polygon id="Star" fill="#B3DBFF" transform="translate(170.248319, 12.993151) rotate(-15.000000) translate(-170.248319, -12.993151) " points="170.250795 18.9550504 164.659803 22.0472742 165.725765 15.4937519 161.200374 10.8505188 167.452058 9.89668503 170.246204 3.93478541 173.043995 9.89880601 179.296264 10.8573825 174.77371 15.4971837 175.843678 22.0515161"></polygon>
            </g>
            <g id="Group" transform="translate(2.000000, 0.000000)">
                <mask id="mask-4" fill="white">
                    <use xlink:href="#path-3"></use>
                </mask>
                <g id="BG-2"></g>
                <path d="M117.798753,218.519481 L12.0197846,218.519481 C-9.98216354,218.519481 -27.8181818,241.032942 -27.8181818,268.805841 L-27.8181818,300.739614 C-27.8181818,328.511868 -9.98216354,351.025974 12.0197846,351.025974 L117.798753,351.025974 C139.800396,351.025974 157.636364,328.511868 157.636364,300.739614 L157.636364,268.805841 C157.636364,241.032942 139.800396,218.519481 117.798753,218.519481 Z" id="Path" fill="#FBC841" mask="url(#mask-4)"></path>
                <path d="M353.524886,220.844156 L242.248359,220.844156 C219.844426,220.844156 201.681818,243.725994 201.681818,271.951865 L201.681818,299.918265 C201.681818,328.144135 219.844426,351.025974 242.248359,351.025974 L353.524886,351.025974 C375.928819,351.025974 394.090909,328.144135 394.090909,299.918265 L394.090909,271.951865 C394.090909,243.725994 375.928819,220.844156 353.524886,220.844156 Z" id="Path" fill="#FBC841" mask="url(#mask-4)"></path>
                <path d="M263.936335,234.792208 L95.3818466,234.792208 C74.7113769,234.792208 57.9545455,258.323313 57.9545455,287.350085 L57.9545455,333.338227 C57.9545455,362.364999 74.7113769,385.896104 95.3818466,385.896104 L263.936335,385.896104 C284.606805,385.896104 301.363636,362.364999 301.363636,333.338227 L301.363636,287.350085 C301.363636,258.323313 284.606805,234.792208 263.936335,234.792208 Z" id="Path" fill="#0087FF" mask="url(#mask-4)"></path>
            </g>
            <g id="ic_groups_promo_asset-4" transform="translate(8.000000, 23.000000)" fill-rule="nonzero">
                <path d="M57.0181264,44.2637363 C87.0874945,44.2637363 111.463087,67.6954137 111.463087,96.5998764 C111.463087,101.995051 110.59537,107.357762 108.890271,112.497787 L98.7407476,143.0975 L16.1173955,144.43956 L4.85255863,112.587572 C-4.20224916,84.8929147 11.8126053,55.3858318 40.6230245,46.6818257 C45.9287067,45.0788967 51.4572024,44.2637363 57.0181264,44.2637363 Z" id="Path" fill="#211913"></path>
                <polygon id="Path" fill="#B77848" points="81.2751678 160.747253 32.5100671 160.747253 32.5100671 195.692308 81.2751678 195.692308"></polygon>
                <path d="M102.174497,104.453911 C102.174497,80.2183312 82.4209925,60.5714286 58.0539494,60.5714286 C33.6863901,60.5714286 13.9328859,80.2183312 13.9328859,104.453911 L13.9328859,133.172462 C13.9328859,157.408042 33.6863901,177.054945 58.0539494,177.054945 C82.4209925,177.054945 102.174497,157.408042 102.174497,133.172462 L102.174497,104.453911 Z" id="Path" fill="#C88F64"></path>
                <path d="M41.7986577,137.450549 L76.6308725,137.450549 C76.6308725,146.457288 68.833253,153.758242 59.2147651,153.758242 C49.5962772,153.758242 41.7986577,146.457288 41.7986577,137.450549 Z" id="Path" fill="#B77848"></path>
                <path d="M0,53.5824176 L55.3218481,53.5824176 C82.4803169,53.5824176 104.496644,75.5410634 104.496644,102.628423 L104.496644,111.824176 L58.395374,111.824176 C26.1443887,111.824176 0,85.7485553 0,53.5824176 Z" id="Path" fill="#211913"></path>
                <polygon id="Path" fill="#E9B9A9" points="322.778523 163.076923 262.402685 163.076923 262.402685 198.021978 322.778523 198.021978"></polygon>
                <path d="M343.677852,111.399374 C343.677852,83.3276549 320.805036,60.5714286 292.590604,60.5714286 C264.375655,60.5714286 241.503356,83.3276549 241.503356,111.399374 L241.503356,128.55667 C241.503356,156.628389 264.375655,179.384615 292.590604,179.384615 C320.805036,179.384615 343.677852,156.628389 343.677852,128.55667 L343.677852,111.399374 Z" id="Path" fill="#F0CEC2"></path>
                <path d="M276.33557,142.10989 L311.167785,142.10989 C311.167785,151.116629 303.370166,158.417582 293.751678,158.417582 C284.13319,158.417582 276.33557,151.116629 276.33557,142.10989 Z" id="Path" fill="#E9B9A9"></path>
                <polygon id="Path" fill="#8D7360" points="274.013423 98.9181254 248.469799 132.791209 248.469799 97.8461538"></polygon>
                <path d="M284.984901,56.4600153 L296.191617,55.9597126 C322.517285,54.7843651 344.796554,75.5074049 345.953839,102.246559 C346.019384,103.76203 346.015288,105.27958 345.940525,106.79453 L345.565688,114.407765 C327.611387,118.460633 308.976541,116.578517 289.660638,108.762457 C270.344736,100.946916 255.066016,98.0735559 243.825503,100.143416 C243.825503,76.7409996 261.966199,57.4876643 284.984901,56.4600153 Z" id="Path" fill="#8D7360"></path>
                <path d="M170.677852,0 C218.771147,0 257.758389,37.6078579 257.758389,84.0001624 L257.758389,212 L83.5973154,212 L83.5973154,84.0001624 C83.5973154,37.6078579 122.584557,0 170.677852,0 Z" id="Path" fill="#7D4B3A"></path>
                <polygon id="Path" fill="#D6947C" points="204.348993 163.076923 139.328859 163.076923 139.328859 212 204.348993 212"></polygon>
                <path d="M236.85906,84.6326609 C236.85906,50.7578699 208.788321,23.2967033 174.161074,23.2967033 C139.533827,23.2967033 111.463087,50.7578699 111.463087,84.6326609 L111.463087,125.037669 C111.463087,158.912976 139.533827,186.373626 174.161074,186.373626 C208.788321,186.373626 236.85906,158.912976 236.85906,125.037669 L236.85906,84.6326609 Z" id="Path" fill="#E2AF9C"></path>
                <path d="M153.261745,142.10989 L190.416107,142.10989 L190.416107,148.023669 C190.416107,158.910803 182.098866,167.736264 171.838926,167.736264 C161.578986,167.736264 153.261745,158.910803 153.261745,148.023669 L153.261745,142.10989 Z" id="Path" fill="#D6947C"></path>
                <path d="M166.511646,20.967033 L174.844058,20.967033 C211.658979,20.967033 241.503356,49.952421 241.503356,85.7072105 L241.503356,97.8461538 L99.852349,97.8461538 L99.852349,85.7072105 C99.852349,49.952421 129.696725,20.967033 166.511646,20.967033 Z" id="Path" fill="#7D4B3A"></path>
            </g>
        </g>
    </g>
</svg>