<?xml version="1.0" encoding="UTF-8"?>
<svg width="442px" height="442px" viewBox="0 0 442 442" version="1.1" xmlns="http://www.w3.org/2000/svg" xmlns:xlink="http://www.w3.org/1999/xlink">
    <title>auto_block_spam_calls_and_sms</title>
    <defs>
        <ellipse id="path-1" cx="180.680029" cy="180" rx="179.832258" ry="180"></ellipse>
    </defs>
    <g id="auto_block_spam_calls_and_sms" stroke="none" stroke-width="1" fill="none" fill-rule="evenodd">
        <g id="Group-6" transform="translate(41.000000, 41.000000)">
            <g id="Group-3">
                <g id="Group-2">
                    <mask id="mask-2" fill="white">
                        <use xlink:href="#path-1"></use>
                    </mask>
                    <use id="Mask" fill="#E5F3FF" xlink:href="#path-1"></use>
                    <g id="Group-11" opacity="0.4" mask="url(#mask-2)">
                        <g transform="translate(172.162905, 322.549451) scale(-1, 1) translate(-172.162905, -322.549451) translate(65.662905, 250.549451)" id="Group">
                            <ellipse id="Oval" fill="#FFFFFF" cx="176.253208" cy="94.2977023" rx="35.979337" ry="35.988012"></ellipse>
                            <ellipse id="Oval" fill="#FFFFFF" cx="113.403227" cy="93.3866134" rx="50.5532457" ry="50.5654346"></ellipse>
                            <ellipse id="Oval" fill="#FFFFFF" cx="50.5532457" cy="50.5654346" rx="50.5532457" ry="50.5654346"></ellipse>
                        </g>
                    </g>
                    <g id="Group-11" opacity="0.4" mask="url(#mask-2)">
                        <g transform="translate(396.173724, 82.888112) scale(-1, 1) translate(-396.173724, -82.888112) translate(345.173724, 31.888112)" id="Group" opacity="0.75">
                            <g>
                                <ellipse id="Oval" fill="#FFFFFF" cx="50.5532457" cy="50.5654346" rx="50.5532457" ry="50.5654346"></ellipse>
                            </g>
                        </g>
                    </g>
                    <g id="Group-11" opacity="0.4" mask="url(#mask-2)">
                        <g transform="translate(-66.315269, 110.220779) scale(-1, 1) translate(66.315269, -110.220779) translate(-117.815269, 59.220779)" id="Group" opacity="0.75">
                            <g transform="translate(51.749969, 51.000000) scale(-1, 1) translate(-51.749969, -51.000000) translate(0.749969, 0.000000)">
                                <ellipse id="Oval" fill="#FFFFFF" cx="50.5532457" cy="50.5654346" rx="50.5532457" ry="50.5654346"></ellipse>
                            </g>
                        </g>
                    </g>
                    <g mask="url(#mask-2)" fill="#FFFFFF" id="Combined-Shape">
                        <g transform="translate(-22.771732, 104.775225)">
                            <path d="M23.6195032,91.1088911 L23.619663,90.9837609 C22.8719384,91.0664436 22.11209,91.1088911 21.3423299,91.1088911 C10.0234975,91.1088911 0.847770851,81.9309521 0.847770851,70.6093906 C0.847770851,59.2878291 10.0234975,50.1098901 21.3423299,50.1098901 C29.5320653,50.1098901 36.5998337,54.9147602 39.8817105,61.8599334 C42.4003461,60.1921118 45.4209713,59.2207792 48.6684087,59.2207792 C56.0458169,59.2207792 62.2526684,64.2337365 64.0700246,71.0399363 C66.0550214,69.3509915 68.628572,68.3316683 71.440141,68.3316683 C77.7283812,68.3316683 82.8260071,73.4305233 82.8260071,79.7202797 C82.8260071,85.2301344 78.9141715,89.8261106 73.716917,90.8811583 L73.7173142,91.1088911 L23.6195032,91.1088911 Z" fill-opacity="0.7"></path>
                            <path d="M278.662905,45.5544456 L278.663869,45.0986227 C277.192016,45.3975319 275.668607,45.5544456 274.108559,45.5544456 C261.532078,45.5544456 251.336826,35.3567356 251.336826,22.7772228 C251.336826,10.19771 261.532078,0 274.108559,0 C283.199389,0 291.04602,5.32833495 294.697188,13.0330298 C297.801161,10.5769373 301.723906,9.11088911 305.988984,9.11088911 C313.331883,9.11088911 319.660105,13.4562875 322.543572,19.7164208 C324.407965,18.7606087 326.52143,18.2217782 328.760716,18.2217782 C336.306604,18.2217782 342.423755,24.3404042 342.423755,31.8881119 C342.423755,37.8382963 338.622037,42.9003278 333.315659,44.7765942 L333.315062,45.5544456 L278.662905,45.5544456 Z" fill-opacity="0.8"></path>
                        </g>
                    </g>
                </g>
                <polygon id="Star" fill="#B3DBFF" transform="translate(247.653052, 92.145354) rotate(-15.000000) translate(-247.653052, -92.145354) " points="247.657815 102.886792 237.043506 108.458257 239.067153 96.6510347 230.475796 88.2858455 242.344426 86.5669674 247.648984 75.8255303 252.960554 86.5704279 264.830307 88.2970439 256.244409 96.6566339 258.275762 108.465178"></polygon>
                <polygon id="Star" fill="#B3DBFF" transform="translate(86.420984, 297.207292) rotate(-15.000000) translate(-86.420984, -297.207292) " points="86.4257473 307.94873 75.8114389 313.520195 77.8350855 301.712973 69.2437288 293.347784 81.1123583 291.628905 86.4169163 280.887468 91.728486 291.632366 103.59824 293.358982 95.012341 301.718572 97.0436943 313.527116"></polygon>
                <polygon id="Star" fill="#B3DBFF" transform="translate(59.421374, 43.653063) rotate(-15.000000) translate(-59.421374, -43.653063) " points="59.4272861 58.6411255 45.3724058 66.4150561 48.0522975 49.9397474 36.6764464 38.2670377 52.3921072 35.8689002 59.4163249 20.8808383 66.4492457 35.8740165 82.1663021 38.2835945 70.7972254 49.9480257 73.4866827 66.4252887"></polygon>
                <polygon id="Star" fill="#B3DBFF" transform="translate(146.454360, 51.876709) rotate(-15.000000) translate(-146.454360, -51.876709) " points="146.456725 57.8719342 140.834773 60.9815064 141.90673 54.3913829 137.356389 49.7222991 143.642654 48.7630441 146.452341 42.7678193 149.265509 48.7650906 155.552331 49.7289217 151.004701 54.3946943 152.080484 60.9855995"></polygon>
                <polygon id="Star" fill="#B3DBFF" transform="translate(303.873788, 201.037716) rotate(-15.000000) translate(-303.873788, -201.037716) " points="303.876152 207.032941 298.2542 210.142513 299.326157 203.552389 294.775817 198.883306 301.062081 197.924051 303.871768 191.928826 306.684936 197.926097 312.971759 198.889928 308.424128 203.555701 309.499911 210.146606"></polygon>
                <polygon id="Star" fill="#B3DBFF" transform="translate(312.823155, 57.601153) rotate(-15.000000) translate(-312.823155, -57.601153) " points="312.82552 63.5963773 307.203567 66.7059496 308.275524 60.1158261 303.725184 55.4467422 310.011448 54.4874872 312.821135 48.4922624 315.634303 54.4895337 321.921126 55.4533649 317.373495 60.1191374 318.449278 66.7100426"></polygon>
                <polygon id="Star" fill="#B3DBFF" transform="translate(299.569990, 308.125628) rotate(-15.000000) translate(-299.569990, -308.125628) " points="299.572355 314.120853 293.950403 317.230425 295.02236 310.640302 290.472019 305.971218 296.758283 305.011963 299.567971 299.016738 302.381139 305.014009 308.667961 305.97784 304.120331 310.643613 305.196114 317.234518"></polygon>
                <polygon id="Star" fill="#B3DBFF" transform="translate(183.840032, 100.817936) rotate(-15.000000) translate(-183.840032, -100.817936) " points="183.842397 106.813161 178.220445 109.922733 179.292402 103.332609 174.742061 98.6635254 181.028326 97.7042704 183.838013 91.7090456 186.651181 97.7063169 192.938004 98.6701481 188.390373 103.335921 189.466156 109.926826"></polygon>
                <polygon id="Star" fill="#B3DBFF" transform="translate(170.194463, 13.065688) rotate(-15.000000) translate(-170.194463, -13.065688) " points="170.196828 19.0609128 164.574875 22.170485 165.646832 15.5803615 161.096492 10.9112777 167.382756 9.95202266 170.192443 3.95679787 173.005611 9.95406918 179.292434 10.9179003 174.744803 15.5836729 175.820586 22.1745781"></polygon>
            </g>
            <g id="Group-5" transform="translate(118.000000, 196.000000) rotate(-10.000000) translate(-118.000000, -196.000000) translate(23.000000, 83.000000)">
                <path d="M56.4773678,1.94008959 C57.5579159,0.695458711 59.0684775,0 60.6429898,0 L129.359216,0 C130.931523,0 132.442085,0.695458711 133.524838,1.94008959 C146.25766,16.5591049 162.977484,26.3554757 181.148329,29.8975171 C183.199164,30.2980054 184.892758,31.8495972 185.598422,33.9815368 C188.668059,43.2671056 190,53.2385399 190,65.720819 C190,135.357789 147.549907,205.39045 95,226 C42.4500931,205.388052 0,135.357789 0,65.720819 C0,53.2385399 1.33194058,43.2671056 4.40157846,33.9815368 C5.10724234,31.8495972 6.80083565,30.2980054 8.85167159,29.8975171 C27.0247216,26.3578737 43.7445455,16.5567063 56.4773678,1.94008959 Z" id="Path" fill="#FBC841" fill-rule="nonzero"></path>
                <circle id="Oval" fill="#F2A91C" cx="95" cy="103" r="55"></circle>
                <path d="M74,127 L77.4653655,118.468968 C73.4440174,113.961267 71,108.016049 71,101.5 C71,87.4167389 82.4167389,76 96.5,76 C110.583261,76 122,87.4167389 122,101.5 C122,115.418286 110.849172,126.732156 96.9938142,126.995314 L97,127 L74,127 Z" id="Combined-Shape" fill="#FFF3D5"></path>
                <path d="M86.5,98 C88.4329966,98 90,99.5670034 90,101.5 C90,103.432997 88.4329966,105 86.5,105 C84.5670034,105 83,103.432997 83,101.5 C83,99.5670034 84.5670034,98 86.5,98 Z M96.5,98 C98.4329966,98 100,99.5670034 100,101.5 C100,103.432997 98.4329966,105 96.5,105 C94.5670034,105 93,103.432997 93,101.5 C93,99.5670034 94.5670034,98 96.5,98 Z M106.5,98 C108.432997,98 110,99.5670034 110,101.5 C110,103.432997 108.432997,105 106.5,105 C104.567003,105 103,103.432997 103,101.5 C103,99.5670034 104.567003,98 106.5,98 Z" id="Combined-Shape" fill="#F2A91C"></path>
            </g>
            <g id="Group-4" transform="translate(222.281250, 176.062500) rotate(10.000000) translate(-222.281250, -176.062500) translate(114.281250, 48.062500)">
                <path d="M64.2058497,2.19762361 C65.4342623,0.787776239 67.1515324,0 68.9415042,0 L147.061003,0 C148.848468,0 150.565738,0.787776239 151.796658,2.19762361 C166.271866,18.7572161 185.279666,29.8539902 205.937048,33.8662141 C208.268524,34.3198645 210.193872,36.0774199 210.9961,38.4923603 C214.485794,49.0105267 216,60.3056027 216,74.4448216 C216,153.325637 167.740947,232.654669 108,256 C48.2590532,232.651952 0,153.325637 0,74.4448216 C0,60.3056027 1.51420613,49.0105267 5.00389972,38.4923603 C5.80612813,36.0774199 7.73147632,34.3198645 10.062953,33.8662141 C30.7228414,29.8567065 49.7306411,18.7544992 64.2058497,2.19762361 Z" id="Path" fill="#0087FF" fill-rule="nonzero"></path>
                <circle id="Oval" fill="#0062BA" cx="107.71875" cy="122.9375" r="61"></circle>
                <path d="M94.1240503,122.067757 C93.4120502,120.837841 92.7650964,119.593838 92.1825278,118.341901 C92.600189,117.611894 94.2351001,114.781968 96.9274449,110.457286 C100.076599,105.398837 94.8692136,100.496485 92.2592124,95.9879435 C89.9752289,92.0425681 85.6382033,95.0048733 85.6382033,95.0048733 C85.6382033,95.0048733 83.952087,95.7208429 81.1221195,97.9878727 C78.2921519,100.254902 78.7454324,104.324139 78.7454324,104.324139 C79.1076301,111.594706 82.061329,119.362813 86.2514801,126.600921 C88.4529529,130.403766 91.0239349,133.817472 93.855453,136.798462 L100.261472,130.393505 C102.696747,132.66431 105.484041,134.741779 108.58329,136.535219 C109.813441,137.24707 111.05768,137.893886 112.309855,138.476328 C113.039988,138.058731 115.870403,136.424073 120.195829,133.732148 C125.255148,130.583486 130.158475,135.789844 134.66788,138.399298 C138.61401,140.682803 135.651236,145.019087 135.651236,145.019087 C135.651236,145.019087 134.935163,146.704907 132.667766,149.534397 C130.400369,152.363886 126.330377,151.910847 126.330377,151.910847 C118.932515,151.146899 111.28892,148.595702 104.049427,144.40643 C100.245854,142.205419 96.831486,139.63496 93.8499086,136.804005 L100.267017,130.387961 C97.9957591,127.953166 95.9178665,125.166413 94.1240503,122.067757 Z" id="path-6" fill="#E5F3FF"></path>
            </g>
        </g>
    </g>
</svg>